<mxfile host="app.diagrams.net" modified="2022-08-01T05:28:29.252Z" agent="5.0 (Windows NT 10.0; Win64; x64) AppleWebKit/537.36 (KHTML, like Gecko) Chrome/103.0.0.0 Safari/537.36" etag="-4pqt8wXkmI6no7XIs7D" version="20.1.4" type="github" pages="9">
  <diagram id="43zNaNNezeLPVIAxyVDb" name="00 kafka总览">
    <mxGraphModel dx="1022" dy="468" grid="1" gridSize="10" guides="1" tooltips="1" connect="1" arrows="1" fold="1" page="1" pageScale="1" pageWidth="827" pageHeight="1169" math="0" shadow="0">
      <root>
        <mxCell id="0" />
        <mxCell id="1" parent="0" />
      </root>
    </mxGraphModel>
  </diagram>
  <diagram id="YVaQByqGfkareMAY_nM6" name="01 kafka基础架构">
    <mxGraphModel dx="1022" dy="468" grid="1" gridSize="10" guides="1" tooltips="1" connect="1" arrows="1" fold="1" page="1" pageScale="1" pageWidth="827" pageHeight="1169" math="0" shadow="0">
      <root>
        <mxCell id="0" />
        <mxCell id="1" parent="0" />
        <mxCell id="eSXZG_brT0zHeE_Tpon9-62" value="" style="rounded=0;orthogonalLoop=1;jettySize=auto;html=1;elbow=vertical;exitX=0.5;exitY=0;exitDx=0;exitDy=0;entryX=0.5;entryY=1;entryDx=0;entryDy=0;" parent="1" source="eSXZG_brT0zHeE_Tpon9-1" target="eSXZG_brT0zHeE_Tpon9-53" edge="1">
          <mxGeometry relative="1" as="geometry" />
        </mxCell>
        <mxCell id="eSXZG_brT0zHeE_Tpon9-1" value="Kafka Cluster" style="swimlane;" parent="1" vertex="1">
          <mxGeometry x="180" y="340" width="420" height="290" as="geometry">
            <mxRectangle x="220" y="90" width="110" height="23" as="alternateBounds" />
          </mxGeometry>
        </mxCell>
        <mxCell id="eSXZG_brT0zHeE_Tpon9-2" value="breker0" style="swimlane;fillColor=#f5f5f5;fontColor=#333333;strokeColor=#666666;" parent="eSXZG_brT0zHeE_Tpon9-1" vertex="1">
          <mxGeometry x="25" y="40" width="355" height="70" as="geometry" />
        </mxCell>
        <mxCell id="eSXZG_brT0zHeE_Tpon9-4" value="TopicA - Partition0&lt;br&gt;leader" style="rounded=0;whiteSpace=wrap;html=1;fillColor=#d5e8d4;strokeColor=#82b366;" parent="eSXZG_brT0zHeE_Tpon9-2" vertex="1">
          <mxGeometry x="15" y="30" width="110" height="30" as="geometry" />
        </mxCell>
        <mxCell id="eSXZG_brT0zHeE_Tpon9-5" value="TopicA - Partition1&lt;br&gt;follower" style="rounded=0;whiteSpace=wrap;html=1;fillColor=#ffe6cc;strokeColor=#d79b00;" parent="eSXZG_brT0zHeE_Tpon9-2" vertex="1">
          <mxGeometry x="215" y="30" width="110" height="30" as="geometry" />
        </mxCell>
        <mxCell id="eSXZG_brT0zHeE_Tpon9-6" value="breker1" style="swimlane;fillColor=#f5f5f5;fontColor=#333333;strokeColor=#666666;" parent="eSXZG_brT0zHeE_Tpon9-1" vertex="1">
          <mxGeometry x="25" y="120" width="355" height="70" as="geometry" />
        </mxCell>
        <mxCell id="eSXZG_brT0zHeE_Tpon9-7" value="TopicA - Partition1&lt;br&gt;leader" style="rounded=0;whiteSpace=wrap;html=1;fillColor=#ffe6cc;strokeColor=#d79b00;" parent="eSXZG_brT0zHeE_Tpon9-6" vertex="1">
          <mxGeometry x="15" y="30" width="110" height="30" as="geometry" />
        </mxCell>
        <mxCell id="eSXZG_brT0zHeE_Tpon9-8" value="TopicA - Partition2&lt;br&gt;follower" style="rounded=0;whiteSpace=wrap;html=1;fillColor=#e1d5e7;strokeColor=#9673a6;" parent="eSXZG_brT0zHeE_Tpon9-6" vertex="1">
          <mxGeometry x="215" y="30" width="110" height="30" as="geometry" />
        </mxCell>
        <mxCell id="eSXZG_brT0zHeE_Tpon9-9" value="breker2" style="swimlane;startSize=23;fillColor=#f5f5f5;fontColor=#333333;strokeColor=#666666;" parent="eSXZG_brT0zHeE_Tpon9-1" vertex="1">
          <mxGeometry x="25" y="200" width="355" height="70" as="geometry" />
        </mxCell>
        <mxCell id="eSXZG_brT0zHeE_Tpon9-10" value="TopicA - Partition2&lt;br&gt;leader" style="rounded=0;whiteSpace=wrap;html=1;fillColor=#e1d5e7;strokeColor=#9673a6;" parent="eSXZG_brT0zHeE_Tpon9-9" vertex="1">
          <mxGeometry x="15" y="30" width="110" height="30" as="geometry" />
        </mxCell>
        <mxCell id="eSXZG_brT0zHeE_Tpon9-11" value="TopicA - Partition0&lt;br&gt;follower" style="rounded=0;whiteSpace=wrap;html=1;fillColor=#d5e8d4;strokeColor=#82b366;" parent="eSXZG_brT0zHeE_Tpon9-9" vertex="1">
          <mxGeometry x="215" y="30" width="110" height="30" as="geometry" />
        </mxCell>
        <mxCell id="eSXZG_brT0zHeE_Tpon9-14" value="" style="endArrow=classic;html=1;rounded=0;exitX=1;exitY=0.75;exitDx=0;exitDy=0;entryX=0;entryY=0.5;entryDx=0;entryDy=0;fillColor=#d5e8d4;strokeColor=#82b366;shape=link;" parent="eSXZG_brT0zHeE_Tpon9-1" source="eSXZG_brT0zHeE_Tpon9-4" target="eSXZG_brT0zHeE_Tpon9-11" edge="1">
          <mxGeometry width="50" height="50" relative="1" as="geometry">
            <mxPoint x="160" y="160" as="sourcePoint" />
            <mxPoint x="210" y="110" as="targetPoint" />
          </mxGeometry>
        </mxCell>
        <mxCell id="eSXZG_brT0zHeE_Tpon9-16" value="" style="endArrow=classic;html=1;rounded=0;entryX=0;entryY=0.5;entryDx=0;entryDy=0;exitX=1;exitY=0.5;exitDx=0;exitDy=0;fillColor=#fff2cc;strokeColor=#d6b656;shape=link;" parent="eSXZG_brT0zHeE_Tpon9-1" source="eSXZG_brT0zHeE_Tpon9-7" target="eSXZG_brT0zHeE_Tpon9-5" edge="1">
          <mxGeometry width="50" height="50" relative="1" as="geometry">
            <mxPoint x="-100" y="230" as="sourcePoint" />
            <mxPoint x="-50" y="180" as="targetPoint" />
          </mxGeometry>
        </mxCell>
        <mxCell id="eSXZG_brT0zHeE_Tpon9-17" value="" style="endArrow=classic;html=1;rounded=0;exitX=1;exitY=0.5;exitDx=0;exitDy=0;entryX=0;entryY=0.5;entryDx=0;entryDy=0;fillColor=#e1d5e7;strokeColor=#9673a6;shape=link;" parent="eSXZG_brT0zHeE_Tpon9-1" source="eSXZG_brT0zHeE_Tpon9-10" target="eSXZG_brT0zHeE_Tpon9-8" edge="1">
          <mxGeometry width="50" height="50" relative="1" as="geometry">
            <mxPoint x="-80" y="270" as="sourcePoint" />
            <mxPoint x="-30" y="220" as="targetPoint" />
          </mxGeometry>
        </mxCell>
        <mxCell id="eSXZG_brT0zHeE_Tpon9-18" value="Producer&lt;br&gt;&lt;br&gt;&lt;br&gt;" style="rounded=0;whiteSpace=wrap;html=1;align=center;" parent="1" vertex="1">
          <mxGeometry x="10" y="475" width="120" height="60" as="geometry" />
        </mxCell>
        <mxCell id="eSXZG_brT0zHeE_Tpon9-19" value="data" style="rounded=0;whiteSpace=wrap;html=1;fillColor=#dae8fc;strokeColor=#6c8ebf;" parent="1" vertex="1">
          <mxGeometry x="20" y="510" width="30" height="20" as="geometry" />
        </mxCell>
        <mxCell id="eSXZG_brT0zHeE_Tpon9-20" value="data" style="rounded=0;whiteSpace=wrap;html=1;fillColor=#dae8fc;strokeColor=#6c8ebf;" parent="1" vertex="1">
          <mxGeometry x="55" y="510" width="30" height="20" as="geometry" />
        </mxCell>
        <mxCell id="eSXZG_brT0zHeE_Tpon9-21" value="data" style="rounded=0;whiteSpace=wrap;html=1;fillColor=#dae8fc;strokeColor=#6c8ebf;" parent="1" vertex="1">
          <mxGeometry x="90" y="510" width="30" height="20" as="geometry" />
        </mxCell>
        <mxCell id="eSXZG_brT0zHeE_Tpon9-22" value="" style="endArrow=classic;html=1;rounded=0;entryX=0;entryY=0.75;entryDx=0;entryDy=0;exitX=1;exitY=0.5;exitDx=0;exitDy=0;" parent="1" source="eSXZG_brT0zHeE_Tpon9-18" target="eSXZG_brT0zHeE_Tpon9-4" edge="1">
          <mxGeometry width="50" height="50" relative="1" as="geometry">
            <mxPoint x="50" y="660" as="sourcePoint" />
            <mxPoint x="100" y="610" as="targetPoint" />
          </mxGeometry>
        </mxCell>
        <mxCell id="eSXZG_brT0zHeE_Tpon9-23" value="" style="endArrow=classic;html=1;rounded=0;entryX=0;entryY=0.75;entryDx=0;entryDy=0;exitX=1;exitY=0.5;exitDx=0;exitDy=0;" parent="1" source="eSXZG_brT0zHeE_Tpon9-18" target="eSXZG_brT0zHeE_Tpon9-7" edge="1">
          <mxGeometry width="50" height="50" relative="1" as="geometry">
            <mxPoint y="680" as="sourcePoint" />
            <mxPoint x="50" y="630" as="targetPoint" />
          </mxGeometry>
        </mxCell>
        <mxCell id="eSXZG_brT0zHeE_Tpon9-24" value="" style="endArrow=classic;html=1;rounded=0;entryX=0;entryY=0.75;entryDx=0;entryDy=0;exitX=1;exitY=0.5;exitDx=0;exitDy=0;" parent="1" source="eSXZG_brT0zHeE_Tpon9-18" target="eSXZG_brT0zHeE_Tpon9-10" edge="1">
          <mxGeometry width="50" height="50" relative="1" as="geometry">
            <mxPoint x="130" y="550" as="sourcePoint" />
            <mxPoint x="80" y="610" as="targetPoint" />
          </mxGeometry>
        </mxCell>
        <mxCell id="eSXZG_brT0zHeE_Tpon9-30" value="group1" style="swimlane;fillColor=#FFFFFF;" parent="1" vertex="1">
          <mxGeometry x="660" y="340" width="140" height="130" as="geometry" />
        </mxCell>
        <mxCell id="eSXZG_brT0zHeE_Tpon9-31" value="Consumer1" style="rounded=0;whiteSpace=wrap;html=1;fillColor=#60a917;fontColor=#ffffff;strokeColor=#2D7600;" parent="eSXZG_brT0zHeE_Tpon9-30" vertex="1">
          <mxGeometry x="20" y="40" width="100" height="20" as="geometry" />
        </mxCell>
        <mxCell id="eSXZG_brT0zHeE_Tpon9-32" value="Consumer2" style="rounded=0;whiteSpace=wrap;html=1;fillColor=#d80073;fontColor=#ffffff;strokeColor=#A50040;" parent="eSXZG_brT0zHeE_Tpon9-30" vertex="1">
          <mxGeometry x="20" y="70" width="100" height="20" as="geometry" />
        </mxCell>
        <mxCell id="eSXZG_brT0zHeE_Tpon9-33" value="Consumer3" style="rounded=0;whiteSpace=wrap;html=1;fillColor=#a20025;fontColor=#ffffff;strokeColor=#6F0000;" parent="eSXZG_brT0zHeE_Tpon9-30" vertex="1">
          <mxGeometry x="20" y="100" width="100" height="20" as="geometry" />
        </mxCell>
        <mxCell id="eSXZG_brT0zHeE_Tpon9-38" value="group2" style="swimlane;fillColor=#FFFFFF;" parent="1" vertex="1">
          <mxGeometry x="660" y="500" width="140" height="130" as="geometry" />
        </mxCell>
        <mxCell id="eSXZG_brT0zHeE_Tpon9-39" value="Consumer1" style="rounded=0;whiteSpace=wrap;html=1;fillColor=#60a917;fontColor=#ffffff;strokeColor=#2D7600;" parent="eSXZG_brT0zHeE_Tpon9-38" vertex="1">
          <mxGeometry x="20" y="40" width="100" height="20" as="geometry" />
        </mxCell>
        <mxCell id="eSXZG_brT0zHeE_Tpon9-40" value="Consumer2" style="rounded=0;whiteSpace=wrap;html=1;fillColor=#d80073;fontColor=#ffffff;strokeColor=#A50040;" parent="eSXZG_brT0zHeE_Tpon9-38" vertex="1">
          <mxGeometry x="20" y="70" width="100" height="20" as="geometry" />
        </mxCell>
        <mxCell id="eSXZG_brT0zHeE_Tpon9-41" value="Consumer3" style="rounded=0;whiteSpace=wrap;html=1;fillColor=#a20025;fontColor=#ffffff;strokeColor=#6F0000;" parent="eSXZG_brT0zHeE_Tpon9-38" vertex="1">
          <mxGeometry x="20" y="100" width="100" height="20" as="geometry" />
        </mxCell>
        <mxCell id="eSXZG_brT0zHeE_Tpon9-49" value="" style="endArrow=classic;html=1;rounded=0;exitX=1;exitY=0.5;exitDx=0;exitDy=0;fillColor=#a20025;strokeColor=#6F0000;" parent="eSXZG_brT0zHeE_Tpon9-38" source="eSXZG_brT0zHeE_Tpon9-10" edge="1">
          <mxGeometry width="50" height="50" relative="1" as="geometry">
            <mxPoint x="-30" y="160" as="sourcePoint" />
            <mxPoint x="20" y="110" as="targetPoint" />
          </mxGeometry>
        </mxCell>
        <mxCell id="eSXZG_brT0zHeE_Tpon9-42" value="" style="edgeStyle=none;rounded=0;orthogonalLoop=1;jettySize=auto;html=1;entryX=0;entryY=0.5;entryDx=0;entryDy=0;fillColor=#60a917;strokeColor=#2D7600;" parent="1" source="eSXZG_brT0zHeE_Tpon9-4" target="eSXZG_brT0zHeE_Tpon9-31" edge="1">
          <mxGeometry relative="1" as="geometry" />
        </mxCell>
        <mxCell id="eSXZG_brT0zHeE_Tpon9-43" value="" style="edgeStyle=none;rounded=0;orthogonalLoop=1;jettySize=auto;html=1;entryX=0;entryY=0.5;entryDx=0;entryDy=0;fillColor=#60a917;strokeColor=#2D7600;" parent="1" target="eSXZG_brT0zHeE_Tpon9-39" edge="1">
          <mxGeometry relative="1" as="geometry">
            <mxPoint x="330" y="430" as="sourcePoint" />
          </mxGeometry>
        </mxCell>
        <mxCell id="eSXZG_brT0zHeE_Tpon9-46" value="" style="edgeStyle=none;rounded=0;orthogonalLoop=1;jettySize=auto;html=1;entryX=0;entryY=0.5;entryDx=0;entryDy=0;fillColor=#d80073;strokeColor=#A50040;" parent="1" target="eSXZG_brT0zHeE_Tpon9-32" edge="1">
          <mxGeometry relative="1" as="geometry">
            <mxPoint x="330" y="505" as="sourcePoint" />
          </mxGeometry>
        </mxCell>
        <mxCell id="eSXZG_brT0zHeE_Tpon9-47" value="" style="edgeStyle=none;rounded=0;orthogonalLoop=1;jettySize=auto;html=1;entryX=0;entryY=0.5;entryDx=0;entryDy=0;fillColor=#d80073;strokeColor=#A50040;" parent="1" source="eSXZG_brT0zHeE_Tpon9-7" target="eSXZG_brT0zHeE_Tpon9-40" edge="1">
          <mxGeometry relative="1" as="geometry" />
        </mxCell>
        <mxCell id="eSXZG_brT0zHeE_Tpon9-48" value="" style="edgeStyle=none;rounded=0;orthogonalLoop=1;jettySize=auto;html=1;entryX=0;entryY=0.5;entryDx=0;entryDy=0;exitX=1;exitY=0.5;exitDx=0;exitDy=0;fillColor=#a20025;strokeColor=#6F0000;" parent="1" source="eSXZG_brT0zHeE_Tpon9-10" target="eSXZG_brT0zHeE_Tpon9-33" edge="1">
          <mxGeometry relative="1" as="geometry" />
        </mxCell>
        <mxCell id="eSXZG_brT0zHeE_Tpon9-53" value="zookeeper" style="swimlane;fillColor=#FFFFFF;" parent="1" vertex="1">
          <mxGeometry x="270" y="190" width="240" height="80" as="geometry" />
        </mxCell>
        <mxCell id="eSXZG_brT0zHeE_Tpon9-54" value="zk1" style="rounded=0;whiteSpace=wrap;html=1;fillColor=#1ba1e2;fontColor=#ffffff;strokeColor=#006EAF;" parent="eSXZG_brT0zHeE_Tpon9-53" vertex="1">
          <mxGeometry x="18" y="40" width="52" height="28" as="geometry" />
        </mxCell>
        <mxCell id="eSXZG_brT0zHeE_Tpon9-59" value="zk2" style="rounded=0;whiteSpace=wrap;html=1;fillColor=#1ba1e2;fontColor=#ffffff;strokeColor=#006EAF;" parent="eSXZG_brT0zHeE_Tpon9-53" vertex="1">
          <mxGeometry x="98" y="38" width="50" height="30" as="geometry" />
        </mxCell>
        <mxCell id="eSXZG_brT0zHeE_Tpon9-60" value="zk3" style="rounded=0;whiteSpace=wrap;html=1;fillColor=#1ba1e2;fontColor=#ffffff;strokeColor=#006EAF;" parent="eSXZG_brT0zHeE_Tpon9-53" vertex="1">
          <mxGeometry x="178" y="38" width="50" height="30" as="geometry" />
        </mxCell>
        <mxCell id="eSXZG_brT0zHeE_Tpon9-63" value="/brokers/ids/[0,1,2]&lt;br&gt;/brokers/topics/first/partitions/0/state&lt;br&gt;&quot;leader&quot;:0,&quot;isr&quot;:[0,2]&amp;nbsp;" style="text;html=1;strokeColor=none;fillColor=none;align=left;verticalAlign=middle;whiteSpace=wrap;rounded=0;shadow=1;" parent="1" vertex="1">
          <mxGeometry x="400" y="290" width="60" height="30" as="geometry" />
        </mxCell>
        <mxCell id="eSXZG_brT0zHeE_Tpon9-64" value="&lt;h1&gt;Kafka 基础架构&lt;/h1&gt;&lt;p&gt;1.为方便扩展，并提高吞吐量，一个topic分为多个partition&lt;/p&gt;&lt;p&gt;2.配合分区的设计，提出消费者组的概念，组内每个消费者并行消费&lt;/p&gt;&lt;p&gt;3.为提高可用性，为每个partition增加若干副本&lt;/p&gt;&lt;p&gt;4. ZK中记录谁是leader，Kafka2.8.0以后也可以配置不采用ZK&lt;/p&gt;" style="text;html=1;strokeColor=none;fillColor=none;spacing=5;spacingTop=-20;whiteSpace=wrap;overflow=hidden;rounded=0;shadow=1;" parent="1" vertex="1">
          <mxGeometry x="20" y="10" width="490" height="150" as="geometry" />
        </mxCell>
        <mxCell id="eSXZG_brT0zHeE_Tpon9-65" value="&lt;h1&gt;成员介绍&lt;/h1&gt;&lt;p&gt;（1）Producer：消息生产者，就是向 Kafka broker 发消息的客户端。&lt;/p&gt;&lt;p&gt;（2）Consumer：消息消费者，向 Kafka broker 取消息的客户端。&lt;/p&gt;&lt;p&gt;（3）Consumer Group（CG）：消费者组，由多个 consumer 组成。消费者组内每个消费者负责消费不同分区的数据，一个分区只能由一个组内消费者消费；消费者组之间互不影响。所有的消费者都属于某个消费者组，即消费者组是逻辑上的一个订阅者。&lt;/p&gt;&lt;p&gt;（4）Broker：一台 Kafka 服务器就是一个 broker。一个集群由多个 broker 组成。一个broker 可以容纳多个 topic。&lt;/p&gt;&lt;p&gt;（5）Topic：可以理解为一个队列，生产者和消费者面向的都是一个 topic。&lt;/p&gt;&lt;p&gt;（6）Partition：为了实现扩展性，一个非常大的 topic 可以分布到多个 broker（即服务器）上，一个 topic 可以分为多个 partition，每个 partition 是一个有序的队列。&lt;/p&gt;&lt;p&gt;（7）Replica：副本。一个 topic 的每个分区都有若干个副本，一个 Leader 和若干个 Follower。&lt;/p&gt;&lt;p&gt;（8）Leader：每个分区多个副本的“主”，生产者发送数据的对象，以及消费者消费数据的对象都是 Leader。&lt;/p&gt;&lt;p&gt;（9）Follower：每个分区多个副本中的“从”，实时从 Leader 中同步数据，保持和 Leader 数据的同步。Leader 发生故障时，某个 Follower 会成为新的 Leader。&lt;/p&gt;" style="text;html=1;strokeColor=none;fillColor=none;spacing=5;spacingTop=-20;whiteSpace=wrap;overflow=hidden;rounded=0;shadow=1;" parent="1" vertex="1">
          <mxGeometry x="23" y="650" width="788" height="320" as="geometry" />
        </mxCell>
        <mxCell id="eSXZG_brT0zHeE_Tpon9-68" value="&lt;font color=&quot;#00ff00&quot;&gt;kafka-console-producer.sh&lt;/font&gt;" style="text;html=1;strokeColor=none;fillColor=none;align=center;verticalAlign=middle;whiteSpace=wrap;rounded=0;shadow=1;" parent="1" vertex="1">
          <mxGeometry y="450" width="160" height="10" as="geometry" />
        </mxCell>
        <mxCell id="eSXZG_brT0zHeE_Tpon9-69" value="kafka-topics.sh" style="text;html=1;strokeColor=none;fillColor=none;align=center;verticalAlign=middle;whiteSpace=wrap;rounded=0;shadow=1;fontColor=#00FF00;" parent="1" vertex="1">
          <mxGeometry x="170" y="310" width="110" height="20" as="geometry" />
        </mxCell>
        <mxCell id="eSXZG_brT0zHeE_Tpon9-70" value="kafka-console-consumer.sh" style="text;html=1;align=center;verticalAlign=middle;resizable=0;points=[];autosize=1;strokeColor=none;fillColor=none;fontColor=#00FF00;" parent="1" vertex="1">
          <mxGeometry x="640" y="310" width="160" height="20" as="geometry" />
        </mxCell>
      </root>
    </mxGraphModel>
  </diagram>
  <diagram id="df3xZz75t7QaS7L6ZFp4" name="02 kafka生产者发送消息流程">
    <mxGraphModel dx="1022" dy="468" grid="1" gridSize="10" guides="1" tooltips="1" connect="1" arrows="1" fold="1" page="1" pageScale="1" pageWidth="827" pageHeight="1169" math="0" shadow="0">
      <root>
        <mxCell id="0" />
        <mxCell id="1" parent="0" />
        <mxCell id="qqlyd_sDcNi6fESpQ9cy-36" value="" style="rounded=1;whiteSpace=wrap;html=1;shadow=0;dashed=1;" parent="1" vertex="1">
          <mxGeometry x="610" y="140" width="250" height="370" as="geometry" />
        </mxCell>
        <mxCell id="qqlyd_sDcNi6fESpQ9cy-2" value="" style="rounded=1;whiteSpace=wrap;html=1;shadow=0;dashed=1;" parent="1" vertex="1">
          <mxGeometry x="120" y="150" width="170" height="360" as="geometry" />
        </mxCell>
        <mxCell id="qqlyd_sDcNi6fESpQ9cy-12" value="&lt;p style=&quot;line-height: 0;&quot;&gt;&lt;br&gt;&lt;span style=&quot;color: rgb(0, 0, 0); font-family: Helvetica; font-size: 12px; font-style: normal; font-variant-ligatures: normal; font-variant-caps: normal; font-weight: 400; letter-spacing: normal; orphans: 2; text-align: center; text-indent: 0px; text-transform: none; widows: 2; word-spacing: 0px; -webkit-text-stroke-width: 0px; background-color: rgb(248, 249, 250); text-decoration-thickness: initial; text-decoration-style: initial; text-decoration-color: initial; float: none; display: inline !important;&quot;&gt;send(ProducerRecord)&lt;/span&gt;&lt;br&gt;&lt;br&gt;&lt;/p&gt;" style="edgeStyle=none;rounded=0;orthogonalLoop=1;jettySize=auto;html=1;elbow=vertical;entryX=0.5;entryY=0;entryDx=0;entryDy=0;" parent="1" source="qqlyd_sDcNi6fESpQ9cy-4" target="qqlyd_sDcNi6fESpQ9cy-9" edge="1">
          <mxGeometry relative="1" as="geometry" />
        </mxCell>
        <mxCell id="qqlyd_sDcNi6fESpQ9cy-4" value="Producer" style="rounded=0;whiteSpace=wrap;html=1;shadow=0;fillColor=#dae8fc;gradientColor=#7ea6e0;strokeColor=#6c8ebf;" parent="1" vertex="1">
          <mxGeometry x="145" y="200" width="125" height="40" as="geometry" />
        </mxCell>
        <mxCell id="qqlyd_sDcNi6fESpQ9cy-5" value="&lt;font color=&quot;#000000&quot;&gt;main线程&lt;/font&gt;" style="text;html=1;align=center;verticalAlign=middle;resizable=0;points=[];autosize=1;strokeColor=none;fillColor=none;" parent="1" vertex="1">
          <mxGeometry x="172.5" y="170" width="70" height="20" as="geometry" />
        </mxCell>
        <mxCell id="qqlyd_sDcNi6fESpQ9cy-13" value="" style="edgeStyle=none;rounded=0;orthogonalLoop=1;jettySize=auto;html=1;elbow=vertical;entryX=0.5;entryY=0;entryDx=0;entryDy=0;" parent="1" source="qqlyd_sDcNi6fESpQ9cy-9" target="qqlyd_sDcNi6fESpQ9cy-10" edge="1">
          <mxGeometry relative="1" as="geometry" />
        </mxCell>
        <mxCell id="qqlyd_sDcNi6fESpQ9cy-9" value="Interceptors&lt;br/&gt;拦截器" style="rounded=0;whiteSpace=wrap;html=1;shadow=0;fillColor=#dae8fc;gradientColor=#7ea6e0;strokeColor=#6c8ebf;" parent="1" vertex="1">
          <mxGeometry x="145" y="290" width="125" height="40" as="geometry" />
        </mxCell>
        <mxCell id="qqlyd_sDcNi6fESpQ9cy-14" value="" style="edgeStyle=none;rounded=0;orthogonalLoop=1;jettySize=auto;html=1;elbow=vertical;" parent="1" source="qqlyd_sDcNi6fESpQ9cy-10" target="qqlyd_sDcNi6fESpQ9cy-11" edge="1">
          <mxGeometry relative="1" as="geometry" />
        </mxCell>
        <mxCell id="qqlyd_sDcNi6fESpQ9cy-10" value="Serializer&lt;br/&gt;序列化器" style="rounded=0;whiteSpace=wrap;html=1;shadow=0;fillColor=#dae8fc;gradientColor=#7ea6e0;strokeColor=#6c8ebf;" parent="1" vertex="1">
          <mxGeometry x="145" y="360" width="125" height="40" as="geometry" />
        </mxCell>
        <mxCell id="qqlyd_sDcNi6fESpQ9cy-11" value="Partitioner&lt;br/&gt;分区器" style="rounded=0;whiteSpace=wrap;html=1;shadow=0;fillColor=#dae8fc;gradientColor=#7ea6e0;strokeColor=#6c8ebf;" parent="1" vertex="1">
          <mxGeometry x="145" y="430" width="125" height="40" as="geometry" />
        </mxCell>
        <mxCell id="AyJzPBdYYBOKj8tQYdqn-1" value="" style="edgeStyle=orthogonalEdgeStyle;rounded=0;orthogonalLoop=1;jettySize=auto;html=1;entryX=0;entryY=0.5;entryDx=0;entryDy=0;exitX=1.007;exitY=0.313;exitDx=0;exitDy=0;exitPerimeter=0;fillColor=#0050ef;strokeColor=#001DBC;" parent="1" source="qqlyd_sDcNi6fESpQ9cy-17" target="qqlyd_sDcNi6fESpQ9cy-37" edge="1">
          <mxGeometry relative="1" as="geometry">
            <Array as="points">
              <mxPoint x="620" y="263" />
              <mxPoint x="620" y="179" />
            </Array>
          </mxGeometry>
        </mxCell>
        <mxCell id="qqlyd_sDcNi6fESpQ9cy-17" value="" style="rounded=1;whiteSpace=wrap;html=1;shadow=0;dashed=1;fillColor=#eeeeee;strokeColor=#36393d;" parent="1" vertex="1">
          <mxGeometry x="360" y="150" width="200" height="360" as="geometry" />
        </mxCell>
        <mxCell id="qqlyd_sDcNi6fESpQ9cy-18" value="DQuene" style="shape=cylinder3;whiteSpace=wrap;html=1;boundedLbl=1;backgroundOutline=1;size=15;shadow=0;direction=north;align=left;fillColor=#ffcd28;gradientColor=#ffa500;strokeColor=#d79b00;" parent="1" vertex="1">
          <mxGeometry x="400" y="240" width="120" height="50" as="geometry" />
        </mxCell>
        <mxCell id="qqlyd_sDcNi6fESpQ9cy-19" value="DQuene" style="shape=cylinder3;whiteSpace=wrap;html=1;boundedLbl=1;backgroundOutline=1;size=15;shadow=0;direction=north;align=left;fillColor=#ffcd28;gradientColor=#ffa500;strokeColor=#d79b00;" parent="1" vertex="1">
          <mxGeometry x="400" y="330" width="120" height="50" as="geometry" />
        </mxCell>
        <mxCell id="qqlyd_sDcNi6fESpQ9cy-20" value="DQuene" style="shape=cylinder3;whiteSpace=wrap;html=1;boundedLbl=1;backgroundOutline=1;size=15;shadow=0;direction=north;align=left;fillColor=#ffcd28;gradientColor=#ffa500;strokeColor=#d79b00;" parent="1" vertex="1">
          <mxGeometry x="400" y="410" width="120" height="50" as="geometry" />
        </mxCell>
        <mxCell id="qqlyd_sDcNi6fESpQ9cy-21" value="data" style="rounded=0;whiteSpace=wrap;html=1;shadow=0;dashed=1;fillColor=#fff2cc;gradientColor=#ffd966;strokeColor=#d6b656;" parent="1" vertex="1">
          <mxGeometry x="250" y="70" width="30" height="40" as="geometry" />
        </mxCell>
        <mxCell id="qqlyd_sDcNi6fESpQ9cy-22" value="data" style="rounded=0;whiteSpace=wrap;html=1;shadow=0;dashed=1;fillColor=#fff2cc;gradientColor=#ffd966;strokeColor=#d6b656;" parent="1" vertex="1">
          <mxGeometry x="130" y="70" width="30" height="40" as="geometry" />
        </mxCell>
        <mxCell id="qqlyd_sDcNi6fESpQ9cy-23" value="data" style="rounded=0;whiteSpace=wrap;html=1;shadow=0;dashed=1;fillColor=#fff2cc;gradientColor=#ffd966;strokeColor=#d6b656;" parent="1" vertex="1">
          <mxGeometry x="172.5" y="70" width="30" height="40" as="geometry" />
        </mxCell>
        <mxCell id="qqlyd_sDcNi6fESpQ9cy-24" value="data" style="rounded=0;whiteSpace=wrap;html=1;shadow=0;dashed=1;fillColor=#fff2cc;gradientColor=#ffd966;strokeColor=#d6b656;" parent="1" vertex="1">
          <mxGeometry x="212.5" y="70" width="30" height="40" as="geometry" />
        </mxCell>
        <mxCell id="qqlyd_sDcNi6fESpQ9cy-25" style="edgeStyle=none;rounded=0;orthogonalLoop=1;jettySize=auto;html=1;exitX=0;exitY=0.25;exitDx=0;exitDy=0;elbow=vertical;fillColor=#fff2cc;gradientColor=#ffd966;strokeColor=#d6b656;" parent="1" source="qqlyd_sDcNi6fESpQ9cy-23" target="qqlyd_sDcNi6fESpQ9cy-23" edge="1">
          <mxGeometry relative="1" as="geometry" />
        </mxCell>
        <mxCell id="qqlyd_sDcNi6fESpQ9cy-26" value="data" style="rounded=0;whiteSpace=wrap;html=1;shadow=0;fillColor=#fff2cc;gradientColor=#ffd966;strokeColor=#d6b656;" parent="1" vertex="1">
          <mxGeometry x="480" y="335" width="30" height="40" as="geometry" />
        </mxCell>
        <mxCell id="qqlyd_sDcNi6fESpQ9cy-27" value="data" style="rounded=0;whiteSpace=wrap;html=1;shadow=0;fillColor=#fff2cc;gradientColor=#ffd966;strokeColor=#d6b656;" parent="1" vertex="1">
          <mxGeometry x="480" y="245" width="30" height="40" as="geometry" />
        </mxCell>
        <mxCell id="qqlyd_sDcNi6fESpQ9cy-28" value="data" style="rounded=0;whiteSpace=wrap;html=1;shadow=0;fillColor=#fff2cc;gradientColor=#ffd966;strokeColor=#d6b656;" parent="1" vertex="1">
          <mxGeometry x="480" y="415" width="30" height="40" as="geometry" />
        </mxCell>
        <mxCell id="qqlyd_sDcNi6fESpQ9cy-29" value="RecordAccumulator&lt;br/&gt;（默认32m）" style="text;html=1;align=center;verticalAlign=middle;resizable=0;points=[];autosize=1;strokeColor=none;fillColor=none;" parent="1" vertex="1">
          <mxGeometry x="400" y="160" width="120" height="30" as="geometry" />
        </mxCell>
        <mxCell id="qqlyd_sDcNi6fESpQ9cy-30" value="ProducerBatch&lt;br/&gt;（默认16k）&lt;br/&gt;" style="text;html=1;align=center;verticalAlign=middle;resizable=0;points=[];autosize=1;strokeColor=none;fillColor=none;" parent="1" vertex="1">
          <mxGeometry x="414" y="200" width="90" height="30" as="geometry" />
        </mxCell>
        <mxCell id="qqlyd_sDcNi6fESpQ9cy-31" value="" style="edgeStyle=none;rounded=0;orthogonalLoop=1;jettySize=auto;html=1;elbow=vertical;exitX=1;exitY=0.5;exitDx=0;exitDy=0;entryX=0.5;entryY=0;entryDx=0;entryDy=0;entryPerimeter=0;" parent="1" source="qqlyd_sDcNi6fESpQ9cy-11" target="qqlyd_sDcNi6fESpQ9cy-18" edge="1">
          <mxGeometry relative="1" as="geometry" />
        </mxCell>
        <mxCell id="qqlyd_sDcNi6fESpQ9cy-32" value="" style="endArrow=classic;html=1;rounded=0;elbow=vertical;exitX=1;exitY=0.5;exitDx=0;exitDy=0;entryX=0.5;entryY=0;entryDx=0;entryDy=0;entryPerimeter=0;" parent="1" source="qqlyd_sDcNi6fESpQ9cy-11" target="qqlyd_sDcNi6fESpQ9cy-19" edge="1">
          <mxGeometry width="50" height="50" relative="1" as="geometry">
            <mxPoint x="320" y="540" as="sourcePoint" />
            <mxPoint x="370" y="490" as="targetPoint" />
          </mxGeometry>
        </mxCell>
        <mxCell id="qqlyd_sDcNi6fESpQ9cy-33" value="" style="endArrow=classic;html=1;rounded=0;elbow=vertical;exitX=1;exitY=0.5;exitDx=0;exitDy=0;entryX=0.5;entryY=0;entryDx=0;entryDy=0;entryPerimeter=0;" parent="1" source="qqlyd_sDcNi6fESpQ9cy-11" target="qqlyd_sDcNi6fESpQ9cy-20" edge="1">
          <mxGeometry width="50" height="50" relative="1" as="geometry">
            <mxPoint x="360" y="480" as="sourcePoint" />
            <mxPoint x="340" y="460" as="targetPoint" />
          </mxGeometry>
        </mxCell>
        <mxCell id="qqlyd_sDcNi6fESpQ9cy-34" value="外部数据" style="text;html=1;strokeColor=none;fillColor=none;align=center;verticalAlign=middle;whiteSpace=wrap;rounded=0;shadow=0;dashed=1;" parent="1" vertex="1">
          <mxGeometry x="290" y="75" width="60" height="30" as="geometry" />
        </mxCell>
        <mxCell id="qqlyd_sDcNi6fESpQ9cy-35" value="Kafka Producer 生产者" style="text;html=1;align=center;verticalAlign=middle;resizable=0;points=[];autosize=1;strokeColor=none;fillColor=none;" parent="1" vertex="1">
          <mxGeometry x="137.5" y="120" width="140" height="20" as="geometry" />
        </mxCell>
        <mxCell id="AyJzPBdYYBOKj8tQYdqn-2" style="rounded=0;orthogonalLoop=1;jettySize=auto;html=1;entryX=0.5;entryY=0;entryDx=0;entryDy=0;fillColor=#0050ef;strokeColor=#001DBC;exitX=0.5;exitY=1;exitDx=0;exitDy=0;" parent="1" source="qqlyd_sDcNi6fESpQ9cy-37" target="qqlyd_sDcNi6fESpQ9cy-40" edge="1">
          <mxGeometry relative="1" as="geometry">
            <mxPoint x="740" y="220" as="sourcePoint" />
          </mxGeometry>
        </mxCell>
        <mxCell id="AyJzPBdYYBOKj8tQYdqn-7" style="edgeStyle=orthogonalEdgeStyle;rounded=0;orthogonalLoop=1;jettySize=auto;html=1;exitX=0.5;exitY=1;exitDx=0;exitDy=0;entryX=0;entryY=0.5;entryDx=0;entryDy=0;fillColor=#0050ef;strokeColor=#001DBC;" parent="1" source="qqlyd_sDcNi6fESpQ9cy-37" target="AyJzPBdYYBOKj8tQYdqn-4" edge="1">
          <mxGeometry relative="1" as="geometry">
            <Array as="points">
              <mxPoint x="745" y="230" />
              <mxPoint x="630" y="230" />
              <mxPoint x="630" y="473" />
            </Array>
          </mxGeometry>
        </mxCell>
        <mxCell id="L4bbH6--Cca79L0l9a3n-1" style="edgeStyle=orthogonalEdgeStyle;rounded=0;orthogonalLoop=1;jettySize=auto;html=1;exitX=0.5;exitY=1;exitDx=0;exitDy=0;" edge="1" parent="1" source="qqlyd_sDcNi6fESpQ9cy-37" target="qqlyd_sDcNi6fESpQ9cy-40">
          <mxGeometry relative="1" as="geometry" />
        </mxCell>
        <mxCell id="qqlyd_sDcNi6fESpQ9cy-37" value="Sender&lt;br/&gt;(读取数据)" style="rounded=1;whiteSpace=wrap;html=1;shadow=0;fillColor=#fa6800;fontColor=#000000;strokeColor=#C73500;" parent="1" vertex="1">
          <mxGeometry x="701" y="165" width="97.5" height="27" as="geometry" />
        </mxCell>
        <mxCell id="qqlyd_sDcNi6fESpQ9cy-38" value="sender线程" style="text;html=1;align=center;verticalAlign=middle;resizable=0;points=[];autosize=1;strokeColor=none;fillColor=none;" parent="1" vertex="1">
          <mxGeometry x="700" y="145" width="80" height="20" as="geometry" />
        </mxCell>
        <mxCell id="AyJzPBdYYBOKj8tQYdqn-17" style="edgeStyle=orthogonalEdgeStyle;rounded=0;orthogonalLoop=1;jettySize=auto;html=1;entryX=0;entryY=0.25;entryDx=0;entryDy=0;fillColor=#fa6800;strokeColor=#C73500;" parent="1" target="AyJzPBdYYBOKj8tQYdqn-4" edge="1">
          <mxGeometry relative="1" as="geometry">
            <mxPoint x="737" y="380" as="sourcePoint" />
            <Array as="points">
              <mxPoint x="737" y="400" />
              <mxPoint x="660" y="400" />
              <mxPoint x="660" y="466" />
            </Array>
          </mxGeometry>
        </mxCell>
        <mxCell id="AyJzPBdYYBOKj8tQYdqn-25" style="edgeStyle=orthogonalEdgeStyle;rounded=0;orthogonalLoop=1;jettySize=auto;html=1;entryX=1.007;entryY=0.522;entryDx=0;entryDy=0;entryPerimeter=0;fillColor=#f0a30a;strokeColor=#BD7000;exitX=0.325;exitY=0.017;exitDx=0;exitDy=0;exitPerimeter=0;" parent="1" source="qqlyd_sDcNi6fESpQ9cy-52" target="qqlyd_sDcNi6fESpQ9cy-17" edge="1">
          <mxGeometry relative="1" as="geometry">
            <mxPoint x="570" y="300" as="sourcePoint" />
            <Array as="points">
              <mxPoint x="650" y="356" />
              <mxPoint x="650" y="338" />
            </Array>
          </mxGeometry>
        </mxCell>
        <mxCell id="AyJzPBdYYBOKj8tQYdqn-26" value="清理" style="edgeLabel;html=1;align=center;verticalAlign=middle;resizable=0;points=[];" parent="AyJzPBdYYBOKj8tQYdqn-25" vertex="1" connectable="0">
          <mxGeometry x="0.4306" y="2" relative="1" as="geometry">
            <mxPoint as="offset" />
          </mxGeometry>
        </mxCell>
        <mxCell id="qqlyd_sDcNi6fESpQ9cy-40" value="NetworkClient" style="swimlane;shadow=0;" parent="1" vertex="1">
          <mxGeometry x="650" y="243" width="200" height="137" as="geometry" />
        </mxCell>
        <mxCell id="qqlyd_sDcNi6fESpQ9cy-41" value="Request1" style="rounded=1;whiteSpace=wrap;html=1;shadow=0;" parent="qqlyd_sDcNi6fESpQ9cy-40" vertex="1">
          <mxGeometry x="125" y="33" width="70" height="25" as="geometry" />
        </mxCell>
        <mxCell id="qqlyd_sDcNi6fESpQ9cy-46" value="InFlightRequests，默认每个&lt;br/&gt;broker节点最多缓存5个请求" style="text;html=1;align=center;verticalAlign=middle;resizable=0;points=[];autosize=1;strokeColor=none;fillColor=none;" parent="qqlyd_sDcNi6fESpQ9cy-40" vertex="1">
          <mxGeometry x="15" y="64" width="170" height="30" as="geometry" />
        </mxCell>
        <mxCell id="qqlyd_sDcNi6fESpQ9cy-47" value="" style="shape=waypoint;sketch=0;size=6;pointerEvents=1;points=[];fillColor=none;resizable=0;rotatable=0;perimeter=centerPerimeter;snapToPoint=1;shadow=0;" parent="qqlyd_sDcNi6fESpQ9cy-40" vertex="1">
          <mxGeometry x="15" y="25.5" width="40" height="40" as="geometry" />
        </mxCell>
        <mxCell id="qqlyd_sDcNi6fESpQ9cy-49" value="" style="shape=waypoint;sketch=0;size=6;pointerEvents=1;points=[];fillColor=none;resizable=0;rotatable=0;perimeter=centerPerimeter;snapToPoint=1;shadow=0;" parent="qqlyd_sDcNi6fESpQ9cy-40" vertex="1">
          <mxGeometry x="2" y="25.5" width="40" height="40" as="geometry" />
        </mxCell>
        <mxCell id="qqlyd_sDcNi6fESpQ9cy-48" value="" style="shape=waypoint;sketch=0;size=6;pointerEvents=1;points=[];fillColor=none;resizable=0;rotatable=0;perimeter=centerPerimeter;snapToPoint=1;shadow=0;" parent="qqlyd_sDcNi6fESpQ9cy-40" vertex="1">
          <mxGeometry x="-11" y="25.5" width="40" height="40" as="geometry" />
        </mxCell>
        <mxCell id="qqlyd_sDcNi6fESpQ9cy-50" value="" style="shape=waypoint;sketch=0;size=6;pointerEvents=1;points=[];fillColor=none;resizable=0;rotatable=0;perimeter=centerPerimeter;snapToPoint=1;shadow=0;" parent="qqlyd_sDcNi6fESpQ9cy-40" vertex="1">
          <mxGeometry x="15" y="93" width="40" height="40" as="geometry" />
        </mxCell>
        <mxCell id="qqlyd_sDcNi6fESpQ9cy-51" value="" style="shape=waypoint;sketch=0;size=6;pointerEvents=1;points=[];fillColor=none;resizable=0;rotatable=0;perimeter=centerPerimeter;snapToPoint=1;shadow=0;" parent="qqlyd_sDcNi6fESpQ9cy-40" vertex="1">
          <mxGeometry x="2" y="93" width="40" height="40" as="geometry" />
        </mxCell>
        <mxCell id="qqlyd_sDcNi6fESpQ9cy-52" value="" style="shape=waypoint;sketch=0;size=6;pointerEvents=1;points=[];fillColor=none;resizable=0;rotatable=0;perimeter=centerPerimeter;snapToPoint=1;shadow=0;" parent="qqlyd_sDcNi6fESpQ9cy-40" vertex="1">
          <mxGeometry x="-11" y="93" width="40" height="40" as="geometry" />
        </mxCell>
        <mxCell id="qqlyd_sDcNi6fESpQ9cy-42" value="Request2" style="rounded=1;whiteSpace=wrap;html=1;shadow=0;" parent="1" vertex="1">
          <mxGeometry x="690" y="341" width="70" height="25" as="geometry" />
        </mxCell>
        <mxCell id="qqlyd_sDcNi6fESpQ9cy-43" value="Request2" style="rounded=1;whiteSpace=wrap;html=1;shadow=0;" parent="1" vertex="1">
          <mxGeometry x="690" y="276" width="70" height="25" as="geometry" />
        </mxCell>
        <mxCell id="qqlyd_sDcNi6fESpQ9cy-44" value="Request1" style="rounded=1;whiteSpace=wrap;html=1;shadow=0;" parent="1" vertex="1">
          <mxGeometry x="770" y="341" width="70" height="25" as="geometry" />
        </mxCell>
        <mxCell id="qqlyd_sDcNi6fESpQ9cy-45" style="edgeStyle=none;rounded=0;orthogonalLoop=1;jettySize=auto;html=1;exitX=0.5;exitY=1;exitDx=0;exitDy=0;elbow=vertical;" parent="1" source="qqlyd_sDcNi6fESpQ9cy-42" target="qqlyd_sDcNi6fESpQ9cy-42" edge="1">
          <mxGeometry relative="1" as="geometry" />
        </mxCell>
        <mxCell id="AyJzPBdYYBOKj8tQYdqn-14" style="edgeStyle=orthogonalEdgeStyle;rounded=0;orthogonalLoop=1;jettySize=auto;html=1;exitX=1;exitY=0.5;exitDx=0;exitDy=0;entryX=0;entryY=0.5;entryDx=0;entryDy=0;fillColor=#fa6800;strokeColor=#C73500;" parent="1" source="qqlyd_sDcNi6fESpQ9cy-54" target="qqlyd_sDcNi6fESpQ9cy-55" edge="1">
          <mxGeometry relative="1" as="geometry" />
        </mxCell>
        <mxCell id="AyJzPBdYYBOKj8tQYdqn-16" style="edgeStyle=orthogonalEdgeStyle;rounded=0;orthogonalLoop=1;jettySize=auto;html=1;exitX=0.5;exitY=0;exitDx=0;exitDy=0;fillColor=#fa6800;strokeColor=#C73500;" parent="1" source="qqlyd_sDcNi6fESpQ9cy-54" edge="1">
          <mxGeometry relative="1" as="geometry">
            <mxPoint x="737" y="380" as="targetPoint" />
          </mxGeometry>
        </mxCell>
        <mxCell id="qqlyd_sDcNi6fESpQ9cy-54" value="成功?" style="rhombus;whiteSpace=wrap;html=1;rounded=0;sketch=0;fillColor=#1ba1e2;fontColor=#ffffff;strokeColor=#006EAF;" parent="1" vertex="1">
          <mxGeometry x="697" y="410" width="80" height="30" as="geometry" />
        </mxCell>
        <mxCell id="AyJzPBdYYBOKj8tQYdqn-15" style="edgeStyle=orthogonalEdgeStyle;rounded=0;orthogonalLoop=1;jettySize=auto;html=1;exitX=1;exitY=0.5;exitDx=0;exitDy=0;entryX=1;entryY=0.5;entryDx=0;entryDy=0;fillColor=#fa6800;strokeColor=#C73500;" parent="1" source="qqlyd_sDcNi6fESpQ9cy-55" target="qqlyd_sDcNi6fESpQ9cy-40" edge="1">
          <mxGeometry relative="1" as="geometry">
            <Array as="points">
              <mxPoint x="910" y="425" />
              <mxPoint x="910" y="312" />
            </Array>
          </mxGeometry>
        </mxCell>
        <mxCell id="qqlyd_sDcNi6fESpQ9cy-55" value="重试?" style="rhombus;whiteSpace=wrap;html=1;rounded=0;sketch=0;fillColor=#1ba1e2;fontColor=#ffffff;strokeColor=#006EAF;" parent="1" vertex="1">
          <mxGeometry x="802" y="410" width="83" height="30" as="geometry" />
        </mxCell>
        <mxCell id="AyJzPBdYYBOKj8tQYdqn-11" style="edgeStyle=orthogonalEdgeStyle;rounded=0;orthogonalLoop=1;jettySize=auto;html=1;exitX=0.5;exitY=1;exitDx=0;exitDy=0;entryX=0.5;entryY=1;entryDx=0;entryDy=0;fillColor=#f0a30a;strokeColor=#BD7000;" parent="1" source="qqlyd_sDcNi6fESpQ9cy-56" target="AyJzPBdYYBOKj8tQYdqn-4" edge="1">
          <mxGeometry relative="1" as="geometry" />
        </mxCell>
        <mxCell id="AyJzPBdYYBOKj8tQYdqn-12" value="acks" style="edgeLabel;html=1;align=center;verticalAlign=middle;resizable=0;points=[];" parent="AyJzPBdYYBOKj8tQYdqn-11" vertex="1" connectable="0">
          <mxGeometry x="-0.2693" y="2" relative="1" as="geometry">
            <mxPoint x="1" y="-2" as="offset" />
          </mxGeometry>
        </mxCell>
        <mxCell id="qqlyd_sDcNi6fESpQ9cy-56" value="" style="rounded=1;whiteSpace=wrap;html=1;shadow=0;dashed=1;fillColor=#eeeeee;strokeColor=#36393d;" parent="1" vertex="1">
          <mxGeometry x="940" y="150" width="270" height="300" as="geometry" />
        </mxCell>
        <mxCell id="qqlyd_sDcNi6fESpQ9cy-58" value="Broker1" style="swimlane;rounded=0;sketch=0;fillColor=#ffcc99;strokeColor=#36393d;" parent="1" vertex="1">
          <mxGeometry x="951" y="210" width="95" height="210" as="geometry" />
        </mxCell>
        <mxCell id="qqlyd_sDcNi6fESpQ9cy-59" value="&lt;span style=&quot;&quot;&gt;Partition1&lt;br&gt;leader&lt;br&gt;&lt;/span&gt;" style="rounded=1;whiteSpace=wrap;html=1;sketch=0;fillColor=#e1d5e7;strokeColor=#9673a6;" parent="qqlyd_sDcNi6fESpQ9cy-58" vertex="1">
          <mxGeometry x="15" y="41" width="65" height="39" as="geometry" />
        </mxCell>
        <mxCell id="Yryvw2550VA6lQVOwHBo-3" value="Broker2" style="swimlane;rounded=0;sketch=0;fillColor=#ffcc99;strokeColor=#36393d;" parent="1" vertex="1">
          <mxGeometry x="1099" y="210" width="100" height="210" as="geometry" />
        </mxCell>
        <mxCell id="Yryvw2550VA6lQVOwHBo-4" value="&lt;span style=&quot;&quot;&gt;Partition1&lt;br&gt;follower&lt;br&gt;&lt;/span&gt;" style="rounded=1;whiteSpace=wrap;html=1;sketch=0;fillColor=#e1d5e7;strokeColor=#9673a6;" parent="Yryvw2550VA6lQVOwHBo-3" vertex="1">
          <mxGeometry x="15" y="41" width="65" height="39" as="geometry" />
        </mxCell>
        <mxCell id="Yryvw2550VA6lQVOwHBo-7" value="" style="edgeStyle=orthogonalEdgeStyle;curved=0;rounded=1;sketch=0;orthogonalLoop=1;jettySize=auto;html=1;entryX=0;entryY=0.5;entryDx=0;entryDy=0;" parent="1" source="qqlyd_sDcNi6fESpQ9cy-59" target="Yryvw2550VA6lQVOwHBo-4" edge="1">
          <mxGeometry relative="1" as="geometry" />
        </mxCell>
        <mxCell id="AyJzPBdYYBOKj8tQYdqn-30" value="数据同步" style="edgeLabel;html=1;align=center;verticalAlign=middle;resizable=0;points=[];" parent="Yryvw2550VA6lQVOwHBo-7" vertex="1" connectable="0">
          <mxGeometry x="-0.2308" y="-2" relative="1" as="geometry">
            <mxPoint x="12" as="offset" />
          </mxGeometry>
        </mxCell>
        <mxCell id="Yryvw2550VA6lQVOwHBo-17" value="&lt;b&gt;Kafka集群&lt;/b&gt;" style="text;html=1;align=center;verticalAlign=middle;resizable=0;points=[];autosize=1;strokeColor=none;fillColor=none;" parent="1" vertex="1">
          <mxGeometry x="1000" y="165" width="70" height="20" as="geometry" />
        </mxCell>
        <mxCell id="Yryvw2550VA6lQVOwHBo-1" value="&lt;span style=&quot;&quot;&gt;Partition2&lt;br&gt;follower&lt;br&gt;&lt;/span&gt;" style="rounded=1;whiteSpace=wrap;html=1;sketch=0;fillColor=#e1d5e7;strokeColor=#9673a6;" parent="1" vertex="1">
          <mxGeometry x="966" y="306" width="70" height="34" as="geometry" />
        </mxCell>
        <mxCell id="Yryvw2550VA6lQVOwHBo-2" value="&lt;span style=&quot;&quot;&gt;Partition3&lt;br&gt;&lt;/span&gt;leader&lt;span style=&quot;&quot;&gt;&lt;br&gt;&lt;/span&gt;" style="rounded=1;whiteSpace=wrap;html=1;sketch=0;fillColor=#e1d5e7;strokeColor=#9673a6;" parent="1" vertex="1">
          <mxGeometry x="966" y="367" width="70" height="33" as="geometry" />
        </mxCell>
        <mxCell id="Yryvw2550VA6lQVOwHBo-5" value="&lt;span style=&quot;&quot;&gt;Partition2&lt;br&gt;&lt;/span&gt;leader&lt;span style=&quot;&quot;&gt;&lt;br&gt;&lt;/span&gt;" style="rounded=1;whiteSpace=wrap;html=1;sketch=0;fillColor=#e1d5e7;strokeColor=#9673a6;" parent="1" vertex="1">
          <mxGeometry x="1114" y="306" width="65" height="34" as="geometry" />
        </mxCell>
        <mxCell id="Yryvw2550VA6lQVOwHBo-6" value="&lt;span style=&quot;&quot;&gt;Partition3&lt;br&gt;follower&lt;br&gt;&lt;/span&gt;" style="rounded=1;whiteSpace=wrap;html=1;sketch=0;fillColor=#e1d5e7;strokeColor=#9673a6;" parent="1" vertex="1">
          <mxGeometry x="1114" y="367" width="65" height="33" as="geometry" />
        </mxCell>
        <mxCell id="Yryvw2550VA6lQVOwHBo-9" value="" style="edgeStyle=orthogonalEdgeStyle;curved=0;rounded=1;sketch=0;orthogonalLoop=1;jettySize=auto;html=1;" parent="1" source="Yryvw2550VA6lQVOwHBo-2" target="Yryvw2550VA6lQVOwHBo-6" edge="1">
          <mxGeometry relative="1" as="geometry" />
        </mxCell>
        <mxCell id="AyJzPBdYYBOKj8tQYdqn-32" value="数据同步" style="edgeLabel;html=1;align=center;verticalAlign=middle;resizable=0;points=[];" parent="Yryvw2550VA6lQVOwHBo-9" vertex="1" connectable="0">
          <mxGeometry x="-0.2" relative="1" as="geometry">
            <mxPoint x="12" as="offset" />
          </mxGeometry>
        </mxCell>
        <mxCell id="Yryvw2550VA6lQVOwHBo-10" value="" style="edgeStyle=orthogonalEdgeStyle;curved=0;rounded=1;sketch=0;orthogonalLoop=1;jettySize=auto;html=1;entryX=1;entryY=0.5;entryDx=0;entryDy=0;" parent="1" source="Yryvw2550VA6lQVOwHBo-5" target="Yryvw2550VA6lQVOwHBo-1" edge="1">
          <mxGeometry relative="1" as="geometry" />
        </mxCell>
        <mxCell id="AyJzPBdYYBOKj8tQYdqn-31" value="数据同步" style="edgeLabel;html=1;align=center;verticalAlign=middle;resizable=0;points=[];" parent="Yryvw2550VA6lQVOwHBo-10" vertex="1" connectable="0">
          <mxGeometry x="0.232" y="2" relative="1" as="geometry">
            <mxPoint x="12" as="offset" />
          </mxGeometry>
        </mxCell>
        <mxCell id="AyJzPBdYYBOKj8tQYdqn-9" value="" style="edgeStyle=orthogonalEdgeStyle;rounded=0;orthogonalLoop=1;jettySize=auto;html=1;entryX=0;entryY=0.5;entryDx=0;entryDy=0;fillColor=#0050ef;strokeColor=#001DBC;" parent="1" source="AyJzPBdYYBOKj8tQYdqn-4" target="qqlyd_sDcNi6fESpQ9cy-58" edge="1">
          <mxGeometry relative="1" as="geometry">
            <Array as="points">
              <mxPoint x="930" y="473" />
              <mxPoint x="930" y="315" />
            </Array>
          </mxGeometry>
        </mxCell>
        <mxCell id="AyJzPBdYYBOKj8tQYdqn-10" value="发送" style="edgeLabel;html=1;align=center;verticalAlign=middle;resizable=0;points=[];" parent="AyJzPBdYYBOKj8tQYdqn-9" vertex="1" connectable="0">
          <mxGeometry x="0.581" y="1" relative="1" as="geometry">
            <mxPoint as="offset" />
          </mxGeometry>
        </mxCell>
        <mxCell id="AyJzPBdYYBOKj8tQYdqn-13" style="edgeStyle=orthogonalEdgeStyle;rounded=0;orthogonalLoop=1;jettySize=auto;html=1;exitX=0.5;exitY=0;exitDx=0;exitDy=0;entryX=0.5;entryY=1;entryDx=0;entryDy=0;fillColor=#fa6800;strokeColor=#C73500;" parent="1" source="AyJzPBdYYBOKj8tQYdqn-4" target="qqlyd_sDcNi6fESpQ9cy-54" edge="1">
          <mxGeometry relative="1" as="geometry" />
        </mxCell>
        <mxCell id="AyJzPBdYYBOKj8tQYdqn-4" value="selector" style="rounded=1;whiteSpace=wrap;html=1;fillColor=#60a917;fontColor=#ffffff;strokeColor=#2D7600;" parent="1" vertex="1">
          <mxGeometry x="702" y="460" width="70" height="25" as="geometry" />
        </mxCell>
        <mxCell id="AyJzPBdYYBOKj8tQYdqn-18" value="retries" style="text;html=1;align=center;verticalAlign=middle;resizable=0;points=[];autosize=1;strokeColor=none;fillColor=none;" parent="1" vertex="1">
          <mxGeometry x="875" y="390" width="50" height="20" as="geometry" />
        </mxCell>
        <mxCell id="AyJzPBdYYBOKj8tQYdqn-19" value="是" style="text;html=1;align=center;verticalAlign=middle;resizable=0;points=[];autosize=1;strokeColor=none;fillColor=none;" parent="1" vertex="1">
          <mxGeometry x="865" y="426" width="30" height="20" as="geometry" />
        </mxCell>
        <mxCell id="AyJzPBdYYBOKj8tQYdqn-20" value="失败" style="text;html=1;align=center;verticalAlign=middle;resizable=0;points=[];autosize=1;strokeColor=none;fillColor=none;" parent="1" vertex="1">
          <mxGeometry x="762" y="426" width="40" height="20" as="geometry" />
        </mxCell>
        <mxCell id="AyJzPBdYYBOKj8tQYdqn-21" value="是" style="text;html=1;align=center;verticalAlign=middle;resizable=0;points=[];autosize=1;strokeColor=none;fillColor=none;" parent="1" vertex="1">
          <mxGeometry x="710" y="395" width="30" height="20" as="geometry" />
        </mxCell>
        <mxCell id="AyJzPBdYYBOKj8tQYdqn-22" value="&lt;div&gt;• batch.size：只有数据积累到batch.size之后，sender才会发送数据。默认16k&lt;/div&gt;&lt;div&gt;• linger.ms：如果数据迟迟未达到batch.size，sender等待linger.ms设置的时间&lt;/div&gt;&lt;div&gt;&amp;nbsp; &amp;nbsp; &amp;nbsp; &amp;nbsp; &amp;nbsp; &amp;nbsp; &amp;nbsp; &amp;nbsp; &amp;nbsp; &amp;nbsp; 到了之后就会发送数据。单位ms，默认值是0ms，表示没有延迟。&lt;/div&gt;&lt;div&gt;&lt;br&gt;&lt;/div&gt;" style="text;html=1;align=left;verticalAlign=middle;resizable=0;points=[];autosize=1;strokeColor=none;fillColor=none;" parent="1" vertex="1">
          <mxGeometry x="415" y="60" width="430" height="60" as="geometry" />
        </mxCell>
        <mxCell id="AyJzPBdYYBOKj8tQYdqn-23" value="在消息发送的过程中，涉及到了两个线程——main 线程和 Sender 线程。&lt;br&gt;在 main 线程中创建了一个双端队列 RecordAccumulator。&lt;br&gt;main 线程将消息发送给 RecordAccumulator，&lt;br&gt;Sender 线程不断从 RecordAccumulator 中拉取消息发送到 Kafka Broker。" style="text;html=1;align=left;verticalAlign=middle;resizable=0;points=[];autosize=1;strokeColor=none;fillColor=none;" parent="1" vertex="1">
          <mxGeometry x="150" y="550" width="410" height="60" as="geometry" />
        </mxCell>
        <mxCell id="AyJzPBdYYBOKj8tQYdqn-24" value="&lt;div&gt;• 0：生产者发送过来的数据，不需要等数据落盘应答。&lt;/div&gt;&lt;div&gt;• 1：生产者发送过来的数据，Leader收到数据后应答。&lt;/div&gt;&lt;div&gt;• -1（all）：生产者发送过来的数据，Leader和ISR队列里面的所有节点收齐数据后应答。-1和all等价。&lt;/div&gt;" style="text;html=1;align=left;verticalAlign=middle;resizable=0;points=[];autosize=1;strokeColor=none;fillColor=none;" parent="1" vertex="1">
          <mxGeometry x="762" y="530" width="560" height="50" as="geometry" />
        </mxCell>
        <mxCell id="AyJzPBdYYBOKj8tQYdqn-29" value="达到&lt;br&gt;&lt;b&gt;batch.size&lt;/b&gt;&lt;br&gt;或&lt;br&gt;&lt;b&gt;linger.ms&lt;/b&gt;" style="text;html=1;align=center;verticalAlign=middle;resizable=0;points=[];autosize=1;strokeColor=none;fillColor=none;" parent="1" vertex="1">
          <mxGeometry x="560" y="180" width="70" height="60" as="geometry" />
        </mxCell>
      </root>
    </mxGraphModel>
  </diagram>
  <diagram id="XSgAQ8k4E4QCslHqcjzD" name="03 Kafka Broker目录">
    <mxGraphModel dx="1022" dy="468" grid="1" gridSize="10" guides="1" tooltips="1" connect="1" arrows="1" fold="1" page="1" pageScale="1" pageWidth="827" pageHeight="1169" math="0" shadow="0">
      <root>
        <mxCell id="0" />
        <mxCell id="1" parent="0" />
        <mxCell id="k624jXulQi5xNvzZpPrv-12" style="edgeStyle=none;rounded=0;orthogonalLoop=1;jettySize=auto;html=1;exitX=1;exitY=1;exitDx=0;exitDy=0;entryX=0.5;entryY=0;entryDx=0;entryDy=0;" parent="1" source="k624jXulQi5xNvzZpPrv-1" target="k624jXulQi5xNvzZpPrv-7" edge="1">
          <mxGeometry relative="1" as="geometry" />
        </mxCell>
        <mxCell id="k624jXulQi5xNvzZpPrv-13" style="edgeStyle=none;rounded=0;orthogonalLoop=1;jettySize=auto;html=1;exitX=0.75;exitY=1;exitDx=0;exitDy=0;entryX=0.5;entryY=0;entryDx=0;entryDy=0;" parent="1" source="k624jXulQi5xNvzZpPrv-1" target="k624jXulQi5xNvzZpPrv-6" edge="1">
          <mxGeometry relative="1" as="geometry" />
        </mxCell>
        <mxCell id="k624jXulQi5xNvzZpPrv-14" style="edgeStyle=none;rounded=0;orthogonalLoop=1;jettySize=auto;html=1;exitX=0.5;exitY=1;exitDx=0;exitDy=0;" parent="1" source="k624jXulQi5xNvzZpPrv-1" target="k624jXulQi5xNvzZpPrv-5" edge="1">
          <mxGeometry relative="1" as="geometry" />
        </mxCell>
        <mxCell id="k624jXulQi5xNvzZpPrv-15" style="edgeStyle=none;rounded=0;orthogonalLoop=1;jettySize=auto;html=1;exitX=0.25;exitY=1;exitDx=0;exitDy=0;entryX=0.5;entryY=0;entryDx=0;entryDy=0;" parent="1" source="k624jXulQi5xNvzZpPrv-1" target="k624jXulQi5xNvzZpPrv-4" edge="1">
          <mxGeometry relative="1" as="geometry" />
        </mxCell>
        <mxCell id="k624jXulQi5xNvzZpPrv-16" style="edgeStyle=none;rounded=0;orthogonalLoop=1;jettySize=auto;html=1;exitX=0;exitY=1;exitDx=0;exitDy=0;entryX=0.5;entryY=0;entryDx=0;entryDy=0;" parent="1" source="k624jXulQi5xNvzZpPrv-1" target="k624jXulQi5xNvzZpPrv-3" edge="1">
          <mxGeometry relative="1" as="geometry" />
        </mxCell>
        <mxCell id="k624jXulQi5xNvzZpPrv-17" style="edgeStyle=none;rounded=0;orthogonalLoop=1;jettySize=auto;html=1;exitX=0;exitY=0.5;exitDx=0;exitDy=0;entryX=0.5;entryY=0;entryDx=0;entryDy=0;" parent="1" source="k624jXulQi5xNvzZpPrv-1" target="k624jXulQi5xNvzZpPrv-2" edge="1">
          <mxGeometry relative="1" as="geometry" />
        </mxCell>
        <mxCell id="k624jXulQi5xNvzZpPrv-67" style="edgeStyle=none;rounded=0;orthogonalLoop=1;jettySize=auto;html=1;exitX=1;exitY=0;exitDx=0;exitDy=0;entryX=0;entryY=0.5;entryDx=0;entryDy=0;" parent="1" source="k624jXulQi5xNvzZpPrv-1" target="k624jXulQi5xNvzZpPrv-11" edge="1">
          <mxGeometry relative="1" as="geometry" />
        </mxCell>
        <mxCell id="k624jXulQi5xNvzZpPrv-68" style="edgeStyle=none;rounded=0;orthogonalLoop=1;jettySize=auto;html=1;exitX=1;exitY=0.25;exitDx=0;exitDy=0;entryX=0;entryY=0.5;entryDx=0;entryDy=0;" parent="1" source="k624jXulQi5xNvzZpPrv-1" target="k624jXulQi5xNvzZpPrv-10" edge="1">
          <mxGeometry relative="1" as="geometry" />
        </mxCell>
        <mxCell id="k624jXulQi5xNvzZpPrv-69" style="edgeStyle=none;rounded=0;orthogonalLoop=1;jettySize=auto;html=1;exitX=1;exitY=0.5;exitDx=0;exitDy=0;entryX=0;entryY=0.5;entryDx=0;entryDy=0;" parent="1" source="k624jXulQi5xNvzZpPrv-1" target="k624jXulQi5xNvzZpPrv-9" edge="1">
          <mxGeometry relative="1" as="geometry" />
        </mxCell>
        <mxCell id="k624jXulQi5xNvzZpPrv-70" style="edgeStyle=none;rounded=0;orthogonalLoop=1;jettySize=auto;html=1;exitX=1;exitY=0.75;exitDx=0;exitDy=0;entryX=0;entryY=0.5;entryDx=0;entryDy=0;" parent="1" source="k624jXulQi5xNvzZpPrv-1" target="k624jXulQi5xNvzZpPrv-8" edge="1">
          <mxGeometry relative="1" as="geometry" />
        </mxCell>
        <mxCell id="k624jXulQi5xNvzZpPrv-1" value="/kafka" style="rounded=1;whiteSpace=wrap;html=1;fillColor=#1ba1e2;fontColor=#ffffff;strokeColor=#006EAF;" parent="1" vertex="1">
          <mxGeometry x="390" y="180" width="86" height="40" as="geometry" />
        </mxCell>
        <mxCell id="k624jXulQi5xNvzZpPrv-19" style="edgeStyle=none;rounded=0;orthogonalLoop=1;jettySize=auto;html=1;exitX=0.5;exitY=1;exitDx=0;exitDy=0;entryX=0.5;entryY=0;entryDx=0;entryDy=0;" parent="1" source="k624jXulQi5xNvzZpPrv-2" target="k624jXulQi5xNvzZpPrv-20" edge="1">
          <mxGeometry relative="1" as="geometry">
            <mxPoint x="65" y="400" as="targetPoint" />
          </mxGeometry>
        </mxCell>
        <mxCell id="k624jXulQi5xNvzZpPrv-2" value="admin" style="rounded=1;whiteSpace=wrap;html=1;fillColor=#f8cecc;strokeColor=#b85450;" parent="1" vertex="1">
          <mxGeometry x="20" y="310" width="90" height="40" as="geometry" />
        </mxCell>
        <mxCell id="k624jXulQi5xNvzZpPrv-26" style="edgeStyle=none;rounded=0;orthogonalLoop=1;jettySize=auto;html=1;exitX=0.5;exitY=1;exitDx=0;exitDy=0;entryX=0.5;entryY=0;entryDx=0;entryDy=0;" parent="1" source="k624jXulQi5xNvzZpPrv-3" target="k624jXulQi5xNvzZpPrv-21" edge="1">
          <mxGeometry relative="1" as="geometry" />
        </mxCell>
        <mxCell id="k624jXulQi5xNvzZpPrv-27" style="edgeStyle=none;rounded=0;orthogonalLoop=1;jettySize=auto;html=1;exitX=0.5;exitY=1;exitDx=0;exitDy=0;entryX=0.5;entryY=0;entryDx=0;entryDy=0;" parent="1" source="k624jXulQi5xNvzZpPrv-3" target="k624jXulQi5xNvzZpPrv-22" edge="1">
          <mxGeometry relative="1" as="geometry" />
        </mxCell>
        <mxCell id="k624jXulQi5xNvzZpPrv-28" style="edgeStyle=none;rounded=0;orthogonalLoop=1;jettySize=auto;html=1;exitX=0.5;exitY=1;exitDx=0;exitDy=0;entryX=0.5;entryY=0;entryDx=0;entryDy=0;" parent="1" source="k624jXulQi5xNvzZpPrv-3" target="k624jXulQi5xNvzZpPrv-23" edge="1">
          <mxGeometry relative="1" as="geometry" />
        </mxCell>
        <mxCell id="k624jXulQi5xNvzZpPrv-3" value="brokers" style="rounded=1;whiteSpace=wrap;html=1;fillColor=#f8cecc;strokeColor=#b85450;" parent="1" vertex="1">
          <mxGeometry x="150" y="310" width="90" height="40" as="geometry" />
        </mxCell>
        <mxCell id="k624jXulQi5xNvzZpPrv-25" style="edgeStyle=none;rounded=0;orthogonalLoop=1;jettySize=auto;html=1;exitX=0.5;exitY=1;exitDx=0;exitDy=0;" parent="1" source="k624jXulQi5xNvzZpPrv-4" target="k624jXulQi5xNvzZpPrv-24" edge="1">
          <mxGeometry relative="1" as="geometry" />
        </mxCell>
        <mxCell id="k624jXulQi5xNvzZpPrv-4" value="cluster" style="rounded=1;whiteSpace=wrap;html=1;fillColor=#f8cecc;strokeColor=#b85450;" parent="1" vertex="1">
          <mxGeometry x="280" y="310" width="90" height="40" as="geometry" />
        </mxCell>
        <mxCell id="k624jXulQi5xNvzZpPrv-5" value="consumers" style="rounded=1;whiteSpace=wrap;html=1;fillColor=#f8cecc;strokeColor=#b85450;" parent="1" vertex="1">
          <mxGeometry x="410" y="310" width="90" height="40" as="geometry" />
        </mxCell>
        <mxCell id="k624jXulQi5xNvzZpPrv-6" value="controller" style="rounded=1;whiteSpace=wrap;html=1;fillColor=#f8cecc;strokeColor=#b85450;" parent="1" vertex="1">
          <mxGeometry x="550" y="310" width="90" height="40" as="geometry" />
        </mxCell>
        <mxCell id="k624jXulQi5xNvzZpPrv-62" style="edgeStyle=none;rounded=0;orthogonalLoop=1;jettySize=auto;html=1;exitX=0.5;exitY=1;exitDx=0;exitDy=0;entryX=0.5;entryY=0;entryDx=0;entryDy=0;" parent="1" source="k624jXulQi5xNvzZpPrv-7" target="k624jXulQi5xNvzZpPrv-57" edge="1">
          <mxGeometry relative="1" as="geometry" />
        </mxCell>
        <mxCell id="k624jXulQi5xNvzZpPrv-63" style="edgeStyle=none;rounded=0;orthogonalLoop=1;jettySize=auto;html=1;exitX=0.5;exitY=1;exitDx=0;exitDy=0;entryX=0.5;entryY=0;entryDx=0;entryDy=0;" parent="1" source="k624jXulQi5xNvzZpPrv-7" target="k624jXulQi5xNvzZpPrv-58" edge="1">
          <mxGeometry relative="1" as="geometry" />
        </mxCell>
        <mxCell id="k624jXulQi5xNvzZpPrv-64" style="edgeStyle=none;rounded=0;orthogonalLoop=1;jettySize=auto;html=1;exitX=0.5;exitY=1;exitDx=0;exitDy=0;entryX=0.5;entryY=0;entryDx=0;entryDy=0;" parent="1" source="k624jXulQi5xNvzZpPrv-7" target="k624jXulQi5xNvzZpPrv-59" edge="1">
          <mxGeometry relative="1" as="geometry" />
        </mxCell>
        <mxCell id="k624jXulQi5xNvzZpPrv-65" style="edgeStyle=none;rounded=0;orthogonalLoop=1;jettySize=auto;html=1;exitX=0.5;exitY=1;exitDx=0;exitDy=0;entryX=0.5;entryY=0;entryDx=0;entryDy=0;" parent="1" source="k624jXulQi5xNvzZpPrv-7" target="k624jXulQi5xNvzZpPrv-60" edge="1">
          <mxGeometry relative="1" as="geometry" />
        </mxCell>
        <mxCell id="k624jXulQi5xNvzZpPrv-66" style="edgeStyle=none;rounded=0;orthogonalLoop=1;jettySize=auto;html=1;exitX=0.5;exitY=1;exitDx=0;exitDy=0;entryX=0.5;entryY=0;entryDx=0;entryDy=0;" parent="1" source="k624jXulQi5xNvzZpPrv-7" target="k624jXulQi5xNvzZpPrv-61" edge="1">
          <mxGeometry relative="1" as="geometry" />
        </mxCell>
        <mxCell id="k624jXulQi5xNvzZpPrv-7" value="config" style="rounded=1;whiteSpace=wrap;html=1;fillColor=#f8cecc;strokeColor=#b85450;" parent="1" vertex="1">
          <mxGeometry x="680" y="310" width="90" height="40" as="geometry" />
        </mxCell>
        <mxCell id="k624jXulQi5xNvzZpPrv-8" value="Controller_epoch" style="rounded=1;whiteSpace=wrap;html=1;fillColor=#f8cecc;strokeColor=#b85450;" parent="1" vertex="1">
          <mxGeometry x="617" y="200" width="210" height="40" as="geometry" />
        </mxCell>
        <mxCell id="k624jXulQi5xNvzZpPrv-9" value="Isr_change_notification" style="rounded=1;whiteSpace=wrap;html=1;fillColor=#f8cecc;strokeColor=#b85450;" parent="1" vertex="1">
          <mxGeometry x="617" y="140" width="210" height="40" as="geometry" />
        </mxCell>
        <mxCell id="k624jXulQi5xNvzZpPrv-10" value="latest_producer_id_block" style="rounded=1;whiteSpace=wrap;html=1;fillColor=#f8cecc;strokeColor=#b85450;" parent="1" vertex="1">
          <mxGeometry x="617" y="80" width="210" height="40" as="geometry" />
        </mxCell>
        <mxCell id="k624jXulQi5xNvzZpPrv-11" value="log_dir_event_notification" style="rounded=1;whiteSpace=wrap;html=1;fillColor=#f8cecc;strokeColor=#b85450;" parent="1" vertex="1">
          <mxGeometry x="617" y="20" width="210" height="40" as="geometry" />
        </mxCell>
        <mxCell id="k624jXulQi5xNvzZpPrv-20" value="delete_topics" style="rounded=0;whiteSpace=wrap;html=1;fillColor=#dae8fc;strokeColor=#6c8ebf;" parent="1" vertex="1">
          <mxGeometry x="18.75" y="400" width="92.5" height="30" as="geometry" />
        </mxCell>
        <mxCell id="k624jXulQi5xNvzZpPrv-21" value="ids" style="rounded=0;whiteSpace=wrap;html=1;fillColor=#dae8fc;strokeColor=#6c8ebf;" parent="1" vertex="1">
          <mxGeometry x="81" y="490" width="50" height="30" as="geometry" />
        </mxCell>
        <mxCell id="k624jXulQi5xNvzZpPrv-47" style="edgeStyle=none;rounded=0;orthogonalLoop=1;jettySize=auto;html=1;exitX=0.5;exitY=1;exitDx=0;exitDy=0;" parent="1" source="k624jXulQi5xNvzZpPrv-22" target="k624jXulQi5xNvzZpPrv-29" edge="1">
          <mxGeometry relative="1" as="geometry" />
        </mxCell>
        <mxCell id="k624jXulQi5xNvzZpPrv-22" value="topics" style="rounded=0;whiteSpace=wrap;html=1;fillColor=#dae8fc;strokeColor=#6c8ebf;" parent="1" vertex="1">
          <mxGeometry x="159.25" y="490" width="71.5" height="30" as="geometry" />
        </mxCell>
        <mxCell id="k624jXulQi5xNvzZpPrv-23" value="seqid" style="rounded=0;whiteSpace=wrap;html=1;fillColor=#dae8fc;strokeColor=#6c8ebf;" parent="1" vertex="1">
          <mxGeometry x="254" y="490" width="70" height="30" as="geometry" />
        </mxCell>
        <mxCell id="k624jXulQi5xNvzZpPrv-24" value="id" style="rounded=0;whiteSpace=wrap;html=1;fillColor=#dae8fc;strokeColor=#6c8ebf;" parent="1" vertex="1">
          <mxGeometry x="290" y="400" width="70" height="30" as="geometry" />
        </mxCell>
        <mxCell id="k624jXulQi5xNvzZpPrv-48" style="edgeStyle=none;rounded=0;orthogonalLoop=1;jettySize=auto;html=1;exitX=0.5;exitY=1;exitDx=0;exitDy=0;entryX=0.5;entryY=0;entryDx=0;entryDy=0;" parent="1" source="k624jXulQi5xNvzZpPrv-29" target="k624jXulQi5xNvzZpPrv-30" edge="1">
          <mxGeometry relative="1" as="geometry" />
        </mxCell>
        <mxCell id="k624jXulQi5xNvzZpPrv-29" value="first" style="rounded=0;whiteSpace=wrap;html=1;fillColor=#d5e8d4;strokeColor=#82b366;" parent="1" vertex="1">
          <mxGeometry x="159.25" y="550" width="71.5" height="30" as="geometry" />
        </mxCell>
        <mxCell id="k624jXulQi5xNvzZpPrv-44" style="edgeStyle=none;rounded=0;orthogonalLoop=1;jettySize=auto;html=1;exitX=1;exitY=0.5;exitDx=0;exitDy=0;entryX=0;entryY=0.5;entryDx=0;entryDy=0;" parent="1" source="k624jXulQi5xNvzZpPrv-30" target="k624jXulQi5xNvzZpPrv-33" edge="1">
          <mxGeometry relative="1" as="geometry" />
        </mxCell>
        <mxCell id="k624jXulQi5xNvzZpPrv-45" style="edgeStyle=none;rounded=0;orthogonalLoop=1;jettySize=auto;html=1;exitX=1;exitY=0.5;exitDx=0;exitDy=0;entryX=0;entryY=0.5;entryDx=0;entryDy=0;" parent="1" source="k624jXulQi5xNvzZpPrv-30" target="k624jXulQi5xNvzZpPrv-34" edge="1">
          <mxGeometry relative="1" as="geometry" />
        </mxCell>
        <mxCell id="k624jXulQi5xNvzZpPrv-46" style="edgeStyle=none;rounded=0;orthogonalLoop=1;jettySize=auto;html=1;exitX=1;exitY=0.5;exitDx=0;exitDy=0;entryX=0;entryY=0.5;entryDx=0;entryDy=0;" parent="1" source="k624jXulQi5xNvzZpPrv-30" target="k624jXulQi5xNvzZpPrv-35" edge="1">
          <mxGeometry relative="1" as="geometry" />
        </mxCell>
        <mxCell id="k624jXulQi5xNvzZpPrv-30" value="partitions" style="rounded=0;whiteSpace=wrap;html=1;fillColor=#f5f5f5;fontColor=#333333;strokeColor=#666666;" parent="1" vertex="1">
          <mxGeometry x="159.25" y="610" width="71.5" height="30" as="geometry" />
        </mxCell>
        <mxCell id="k624jXulQi5xNvzZpPrv-40" style="edgeStyle=none;rounded=0;orthogonalLoop=1;jettySize=auto;html=1;exitX=1;exitY=0.5;exitDx=0;exitDy=0;entryX=0;entryY=0.5;entryDx=0;entryDy=0;" parent="1" source="k624jXulQi5xNvzZpPrv-33" target="k624jXulQi5xNvzZpPrv-37" edge="1">
          <mxGeometry relative="1" as="geometry" />
        </mxCell>
        <mxCell id="k624jXulQi5xNvzZpPrv-33" value="0" style="rounded=0;whiteSpace=wrap;html=1;fillColor=#fff2cc;strokeColor=#d6b656;" parent="1" vertex="1">
          <mxGeometry x="290" y="570" width="40" height="30" as="geometry" />
        </mxCell>
        <mxCell id="k624jXulQi5xNvzZpPrv-41" style="edgeStyle=none;rounded=0;orthogonalLoop=1;jettySize=auto;html=1;exitX=1;exitY=0.5;exitDx=0;exitDy=0;entryX=0;entryY=0.5;entryDx=0;entryDy=0;" parent="1" source="k624jXulQi5xNvzZpPrv-34" target="k624jXulQi5xNvzZpPrv-38" edge="1">
          <mxGeometry relative="1" as="geometry" />
        </mxCell>
        <mxCell id="k624jXulQi5xNvzZpPrv-34" value="0" style="rounded=0;whiteSpace=wrap;html=1;fillColor=#fff2cc;strokeColor=#d6b656;" parent="1" vertex="1">
          <mxGeometry x="290" y="610" width="40" height="30" as="geometry" />
        </mxCell>
        <mxCell id="k624jXulQi5xNvzZpPrv-43" style="edgeStyle=none;rounded=0;orthogonalLoop=1;jettySize=auto;html=1;exitX=1;exitY=0.5;exitDx=0;exitDy=0;entryX=0;entryY=0.5;entryDx=0;entryDy=0;" parent="1" source="k624jXulQi5xNvzZpPrv-35" target="k624jXulQi5xNvzZpPrv-39" edge="1">
          <mxGeometry relative="1" as="geometry" />
        </mxCell>
        <mxCell id="k624jXulQi5xNvzZpPrv-35" value="0" style="rounded=0;whiteSpace=wrap;html=1;fillColor=#fff2cc;strokeColor=#d6b656;" parent="1" vertex="1">
          <mxGeometry x="290" y="650" width="40" height="30" as="geometry" />
        </mxCell>
        <mxCell id="k624jXulQi5xNvzZpPrv-37" value="state" style="rounded=0;whiteSpace=wrap;html=1;fillColor=#ffe6cc;strokeColor=#d79b00;" parent="1" vertex="1">
          <mxGeometry x="379" y="570" width="40" height="30" as="geometry" />
        </mxCell>
        <mxCell id="k624jXulQi5xNvzZpPrv-38" value="state" style="rounded=0;whiteSpace=wrap;html=1;fillColor=#ffe6cc;strokeColor=#d79b00;" parent="1" vertex="1">
          <mxGeometry x="379" y="610" width="40" height="30" as="geometry" />
        </mxCell>
        <mxCell id="k624jXulQi5xNvzZpPrv-39" value="state" style="rounded=0;whiteSpace=wrap;html=1;fillColor=#ffe6cc;strokeColor=#d79b00;" parent="1" vertex="1">
          <mxGeometry x="379" y="650" width="40" height="30" as="geometry" />
        </mxCell>
        <mxCell id="k624jXulQi5xNvzZpPrv-49" value="{&quot;controller_epoch&quot;:21,&quot;leader&quot;:1,&quot;version&quot;:1,&quot;leader_epoch&quot;:17,&quot;isr&quot;:[1,0,2]}" style="text;html=1;align=center;verticalAlign=middle;resizable=0;points=[];autosize=1;strokeColor=none;fillColor=none;" parent="1" vertex="1">
          <mxGeometry x="410" y="575" width="420" height="20" as="geometry" />
        </mxCell>
        <mxCell id="k624jXulQi5xNvzZpPrv-50" value="{&quot;controller_epoch&quot;:21,&quot;leader&quot;:2,&quot;version&quot;:1,&quot;leader_epoch&quot;:15,&quot;isr&quot;:[2,1,0]}" style="text;html=1;align=center;verticalAlign=middle;resizable=0;points=[];autosize=1;strokeColor=none;fillColor=none;" parent="1" vertex="1">
          <mxGeometry x="410" y="615" width="420" height="20" as="geometry" />
        </mxCell>
        <mxCell id="k624jXulQi5xNvzZpPrv-51" value="{&quot;controller_epoch&quot;:21,&quot;leader&quot;:0,&quot;version&quot;:1,&quot;leader_epoch&quot;:19,&quot;isr&quot;:[0,1,2]}" style="text;html=1;align=center;verticalAlign=middle;resizable=0;points=[];autosize=1;strokeColor=none;fillColor=none;" parent="1" vertex="1">
          <mxGeometry x="410" y="656" width="420" height="20" as="geometry" />
        </mxCell>
        <mxCell id="k624jXulQi5xNvzZpPrv-52" value="&lt;div&gt;0.9版本之前用于&lt;/div&gt;&lt;div&gt;保存offset信息&lt;/div&gt;&lt;div&gt;0.9版本之后offset&lt;/div&gt;&lt;div&gt;存储在kafka主题中&lt;/div&gt;" style="text;html=1;align=left;verticalAlign=middle;resizable=0;points=[];autosize=1;strokeColor=none;fillColor=none;" parent="1" vertex="1">
          <mxGeometry x="410" y="360" width="120" height="60" as="geometry" />
        </mxCell>
        <mxCell id="k624jXulQi5xNvzZpPrv-53" value="{&quot;version&quot;:1,&lt;br&gt;&quot;brokerid&quot;:0,&lt;br&gt;&quot;timestamp&quot;:&quot;1635907476&quot;}" style="text;html=1;align=left;verticalAlign=middle;resizable=0;points=[];autosize=1;strokeColor=none;fillColor=none;" parent="1" vertex="1">
          <mxGeometry x="540" y="360" width="160" height="50" as="geometry" />
        </mxCell>
        <mxCell id="k624jXulQi5xNvzZpPrv-57" value="brokers" style="rounded=0;whiteSpace=wrap;html=1;fillColor=#dae8fc;strokeColor=#6c8ebf;" parent="1" vertex="1">
          <mxGeometry x="610" y="440" width="60" height="30" as="geometry" />
        </mxCell>
        <mxCell id="k624jXulQi5xNvzZpPrv-58" value="changes" style="rounded=0;whiteSpace=wrap;html=1;fillColor=#dae8fc;strokeColor=#6c8ebf;" parent="1" vertex="1">
          <mxGeometry x="677" y="440" width="60" height="30" as="geometry" />
        </mxCell>
        <mxCell id="k624jXulQi5xNvzZpPrv-59" value="topics" style="rounded=0;whiteSpace=wrap;html=1;fillColor=#dae8fc;strokeColor=#6c8ebf;" parent="1" vertex="1">
          <mxGeometry x="744" y="440" width="60" height="30" as="geometry" />
        </mxCell>
        <mxCell id="k624jXulQi5xNvzZpPrv-60" value="clients" style="rounded=0;whiteSpace=wrap;html=1;fillColor=#dae8fc;strokeColor=#6c8ebf;" parent="1" vertex="1">
          <mxGeometry x="814" y="440" width="60" height="30" as="geometry" />
        </mxCell>
        <mxCell id="k624jXulQi5xNvzZpPrv-61" value="users" style="rounded=0;whiteSpace=wrap;html=1;fillColor=#dae8fc;strokeColor=#6c8ebf;" parent="1" vertex="1">
          <mxGeometry x="884" y="440" width="60" height="30" as="geometry" />
        </mxCell>
        <mxCell id="k624jXulQi5xNvzZpPrv-71" value="[0,1,2]" style="text;html=1;align=center;verticalAlign=middle;resizable=0;points=[];autosize=1;strokeColor=none;fillColor=none;" parent="1" vertex="1">
          <mxGeometry x="81" y="520" width="50" height="20" as="geometry" />
        </mxCell>
      </root>
    </mxGraphModel>
  </diagram>
  <diagram id="jXRbEsJjeOaGji-cOaR5" name="04 Kafka Broker总体工作流程">
    <mxGraphModel dx="1022" dy="468" grid="1" gridSize="10" guides="1" tooltips="1" connect="1" arrows="1" fold="1" page="1" pageScale="1" pageWidth="827" pageHeight="1169" math="0" shadow="0">
      <root>
        <mxCell id="0" />
        <mxCell id="1" parent="0" />
        <mxCell id="FXR9-RUvBSfXbiI6Rf38-1" value="zookeeper" style="swimlane;" parent="1" vertex="1">
          <mxGeometry x="180" y="60" width="610" height="140" as="geometry" />
        </mxCell>
        <mxCell id="FXR9-RUvBSfXbiI6Rf38-2" value="/brokers/ids&amp;nbsp; [0,1,2]" style="rounded=0;whiteSpace=wrap;html=1;" parent="FXR9-RUvBSfXbiI6Rf38-1" vertex="1">
          <mxGeometry x="20" y="40" width="140" height="40" as="geometry" />
        </mxCell>
        <mxCell id="FXR9-RUvBSfXbiI6Rf38-3" value="controller &quot;broker&quot;:0" style="rounded=0;whiteSpace=wrap;html=1;" parent="FXR9-RUvBSfXbiI6Rf38-1" vertex="1">
          <mxGeometry x="180" y="40" width="140" height="40" as="geometry" />
        </mxCell>
        <mxCell id="FXR9-RUvBSfXbiI6Rf38-4" value="/brekoer/topics/first/partitions/0/state&lt;br&gt;&quot;leader&quot;:0 , &quot;isr&quot;:[0,1,2]" style="rounded=0;whiteSpace=wrap;html=1;" parent="FXR9-RUvBSfXbiI6Rf38-1" vertex="1">
          <mxGeometry x="340" y="40" width="220" height="40" as="geometry" />
        </mxCell>
        <mxCell id="Nm1ozOE1AMhiNZTPJWH--14" value="1) broker 启动后&lt;br&gt;在zk中注册" style="text;html=1;align=left;verticalAlign=middle;resizable=0;points=[];autosize=1;strokeColor=none;fillColor=none;" parent="FXR9-RUvBSfXbiI6Rf38-1" vertex="1">
          <mxGeometry x="20" y="90" width="100" height="30" as="geometry" />
        </mxCell>
        <mxCell id="Nm1ozOE1AMhiNZTPJWH--15" value="2) controller谁先注册&lt;br&gt;&amp;nbsp;， 谁说了算" style="text;html=1;align=left;verticalAlign=middle;resizable=0;points=[];autosize=1;strokeColor=none;fillColor=none;" parent="FXR9-RUvBSfXbiI6Rf38-1" vertex="1">
          <mxGeometry x="180" y="90" width="130" height="30" as="geometry" />
        </mxCell>
        <mxCell id="Nm1ozOE1AMhiNZTPJWH--19" value="5) Controller将节点信息上传到zk" style="text;html=1;align=left;verticalAlign=middle;resizable=0;points=[];autosize=1;strokeColor=none;fillColor=none;" parent="FXR9-RUvBSfXbiI6Rf38-1" vertex="1">
          <mxGeometry x="380" y="100" width="190" height="20" as="geometry" />
        </mxCell>
        <mxCell id="Nm1ozOE1AMhiNZTPJWH--2" value="kafka cluster" style="swimlane;" parent="1" vertex="1">
          <mxGeometry x="180" y="260" width="660" height="300" as="geometry" />
        </mxCell>
        <mxCell id="Nm1ozOE1AMhiNZTPJWH--3" value="broker0&lt;br&gt;&lt;br&gt;&lt;br&gt;&lt;br&gt;" style="rounded=0;whiteSpace=wrap;html=1;align=left;fillColor=#f5f5f5;fontColor=#333333;strokeColor=#666666;" parent="Nm1ozOE1AMhiNZTPJWH--2" vertex="1">
          <mxGeometry x="25" y="40" width="530" height="70" as="geometry" />
        </mxCell>
        <mxCell id="Nm1ozOE1AMhiNZTPJWH--6" value="TopicA-partition0&lt;br&gt;leader" style="rounded=0;whiteSpace=wrap;html=1;" parent="Nm1ozOE1AMhiNZTPJWH--2" vertex="1">
          <mxGeometry x="40" y="60" width="130" height="40" as="geometry" />
        </mxCell>
        <mxCell id="Nm1ozOE1AMhiNZTPJWH--7" value="controller" style="rounded=0;whiteSpace=wrap;html=1;" parent="Nm1ozOE1AMhiNZTPJWH--2" vertex="1">
          <mxGeometry x="220" y="55" width="100" height="40" as="geometry" />
        </mxCell>
        <mxCell id="Nm1ozOE1AMhiNZTPJWH--8" value="broker1&lt;br&gt;&lt;br&gt;&lt;br&gt;&lt;br&gt;" style="rounded=0;whiteSpace=wrap;html=1;align=left;fillColor=#f5f5f5;fontColor=#333333;strokeColor=#666666;" parent="Nm1ozOE1AMhiNZTPJWH--2" vertex="1">
          <mxGeometry x="25" y="130" width="530" height="70" as="geometry" />
        </mxCell>
        <mxCell id="Nm1ozOE1AMhiNZTPJWH--9" value="TopicA-partition0&lt;br&gt;follower" style="rounded=0;whiteSpace=wrap;html=1;" parent="Nm1ozOE1AMhiNZTPJWH--2" vertex="1">
          <mxGeometry x="40" y="150" width="130" height="40" as="geometry" />
        </mxCell>
        <mxCell id="Nm1ozOE1AMhiNZTPJWH--10" value="controller" style="rounded=0;whiteSpace=wrap;html=1;" parent="Nm1ozOE1AMhiNZTPJWH--2" vertex="1">
          <mxGeometry x="220" y="145" width="100" height="40" as="geometry" />
        </mxCell>
        <mxCell id="Nm1ozOE1AMhiNZTPJWH--11" value="broker2&lt;br&gt;&lt;br&gt;&lt;br&gt;&lt;br&gt;" style="rounded=0;whiteSpace=wrap;html=1;align=left;fillColor=#f5f5f5;fontColor=#333333;strokeColor=#666666;" parent="Nm1ozOE1AMhiNZTPJWH--2" vertex="1">
          <mxGeometry x="25" y="220" width="530" height="70" as="geometry" />
        </mxCell>
        <mxCell id="Nm1ozOE1AMhiNZTPJWH--12" value="TopicA-partition0&lt;br&gt;follower" style="rounded=0;whiteSpace=wrap;html=1;" parent="Nm1ozOE1AMhiNZTPJWH--2" vertex="1">
          <mxGeometry x="40" y="240" width="130" height="40" as="geometry" />
        </mxCell>
        <mxCell id="Nm1ozOE1AMhiNZTPJWH--18" value="4) controller决定leader选举 ，&lt;br&gt;并监听brokers节点变化" style="text;html=1;align=left;verticalAlign=middle;resizable=0;points=[];autosize=1;strokeColor=none;fillColor=none;" parent="Nm1ozOE1AMhiNZTPJWH--2" vertex="1">
          <mxGeometry x="190" y="110" width="180" height="30" as="geometry" />
        </mxCell>
        <mxCell id="Nm1ozOE1AMhiNZTPJWH--21" value="6) 其他Controller从zk同步相关信息" style="text;html=1;align=left;verticalAlign=middle;resizable=0;points=[];autosize=1;strokeColor=none;fillColor=none;" parent="Nm1ozOE1AMhiNZTPJWH--2" vertex="1">
          <mxGeometry x="460" y="245" width="200" height="20" as="geometry" />
        </mxCell>
        <mxCell id="Nm1ozOE1AMhiNZTPJWH--24" value="8) controller监听到节点变化" style="text;html=1;align=left;verticalAlign=middle;resizable=0;points=[];autosize=1;strokeColor=none;fillColor=none;" parent="Nm1ozOE1AMhiNZTPJWH--2" vertex="1">
          <mxGeometry x="340" y="65" width="160" height="20" as="geometry" />
        </mxCell>
        <mxCell id="Nm1ozOE1AMhiNZTPJWH--26" value="10) 选举新的Leader（在isr中存活为前提&lt;br&gt;按照AR中排在前面的优先）" style="text;html=1;align=left;verticalAlign=middle;resizable=0;points=[];autosize=1;strokeColor=none;fillColor=none;" parent="Nm1ozOE1AMhiNZTPJWH--2" vertex="1">
          <mxGeometry x="360" y="150" width="230" height="30" as="geometry" />
        </mxCell>
        <mxCell id="Nm1ozOE1AMhiNZTPJWH--16" value="3) 由选举出来的controller&lt;br&gt;监听brokers节点变化" style="text;html=1;align=left;verticalAlign=middle;resizable=0;points=[];autosize=1;strokeColor=none;fillColor=none;" parent="1" vertex="1">
          <mxGeometry x="360" y="210" width="150" height="30" as="geometry" />
        </mxCell>
        <mxCell id="Nm1ozOE1AMhiNZTPJWH--23" value="7) 假设 breker1中leader挂了" style="text;html=1;align=left;verticalAlign=middle;resizable=0;points=[];autosize=1;strokeColor=none;fillColor=none;" parent="1" vertex="1">
          <mxGeometry x="10" y="340" width="170" height="20" as="geometry" />
        </mxCell>
        <mxCell id="Nm1ozOE1AMhiNZTPJWH--25" value="9) 获取ISR" style="text;html=1;align=left;verticalAlign=middle;resizable=0;points=[];autosize=1;strokeColor=none;fillColor=none;" parent="1" vertex="1">
          <mxGeometry x="570" y="220" width="70" height="20" as="geometry" />
        </mxCell>
        <mxCell id="Nm1ozOE1AMhiNZTPJWH--28" value="11）更新Leader及isr" style="text;html=1;align=left;verticalAlign=middle;resizable=0;points=[];autosize=1;strokeColor=none;fillColor=none;" parent="1" vertex="1">
          <mxGeometry x="730" y="215" width="130" height="20" as="geometry" />
        </mxCell>
        <mxCell id="Nm1ozOE1AMhiNZTPJWH--29" value="AR:kafka中所有副本的统称" style="text;html=1;align=center;verticalAlign=middle;resizable=0;points=[];autosize=1;strokeColor=none;fillColor=none;" parent="1" vertex="1">
          <mxGeometry x="10" y="20" width="160" height="20" as="geometry" />
        </mxCell>
        <mxCell id="Nm1ozOE1AMhiNZTPJWH--30" value="&lt;br&gt;&lt;br&gt;kafka Producer" style="rounded=0;whiteSpace=wrap;html=1;" parent="1" vertex="1">
          <mxGeometry x="20" y="390" width="120" height="75" as="geometry" />
        </mxCell>
        <mxCell id="Nm1ozOE1AMhiNZTPJWH--31" value="2" style="rounded=0;whiteSpace=wrap;html=1;" parent="1" vertex="1">
          <mxGeometry x="30" y="395" width="30" height="30" as="geometry" />
        </mxCell>
        <mxCell id="Nm1ozOE1AMhiNZTPJWH--32" value="1" style="rounded=0;whiteSpace=wrap;html=1;" parent="1" vertex="1">
          <mxGeometry x="100" y="395" width="30" height="30" as="geometry" />
        </mxCell>
      </root>
    </mxGraphModel>
  </diagram>
  <diagram id="y5MCf_rimkxbQbm3HeVU" name="05 Kafka 消费方式">
    <mxGraphModel dx="1662" dy="794" grid="1" gridSize="10" guides="1" tooltips="1" connect="1" arrows="1" fold="1" page="1" pageScale="1" pageWidth="827" pageHeight="1169" math="0" shadow="0">
      <root>
        <mxCell id="0" />
        <mxCell id="1" parent="0" />
        <mxCell id="nn0BUz3x2ecz8ijutJGo-1" value="kafka cluster" style="swimlane;startSize=23;" parent="1" vertex="1">
          <mxGeometry x="324" y="70" width="280" height="390" as="geometry" />
        </mxCell>
        <mxCell id="nn0BUz3x2ecz8ijutJGo-3" value="broker0" style="swimlane;" parent="nn0BUz3x2ecz8ijutJGo-1" vertex="1">
          <mxGeometry x="10" y="34" width="260" height="110" as="geometry" />
        </mxCell>
        <mxCell id="nn0BUz3x2ecz8ijutJGo-6" value="TopicA-partition0-leader" style="swimlane;startSize=23;" parent="nn0BUz3x2ecz8ijutJGo-3" vertex="1">
          <mxGeometry x="12.5" y="30" width="235" height="70" as="geometry" />
        </mxCell>
        <mxCell id="nn0BUz3x2ecz8ijutJGo-7" value="0" style="rounded=0;whiteSpace=wrap;html=1;" parent="nn0BUz3x2ecz8ijutJGo-6" vertex="1">
          <mxGeometry x="8.5" y="30" width="30" height="30" as="geometry" />
        </mxCell>
        <mxCell id="nn0BUz3x2ecz8ijutJGo-8" value="1" style="rounded=0;whiteSpace=wrap;html=1;" parent="nn0BUz3x2ecz8ijutJGo-6" vertex="1">
          <mxGeometry x="56.5" y="30" width="30" height="30" as="geometry" />
        </mxCell>
        <mxCell id="nn0BUz3x2ecz8ijutJGo-9" value="2" style="rounded=0;whiteSpace=wrap;html=1;" parent="nn0BUz3x2ecz8ijutJGo-6" vertex="1">
          <mxGeometry x="103.5" y="30" width="30" height="30" as="geometry" />
        </mxCell>
        <mxCell id="nn0BUz3x2ecz8ijutJGo-10" value="3" style="rounded=0;whiteSpace=wrap;html=1;" parent="nn0BUz3x2ecz8ijutJGo-6" vertex="1">
          <mxGeometry x="149.5" y="30" width="30" height="30" as="geometry" />
        </mxCell>
        <mxCell id="nn0BUz3x2ecz8ijutJGo-11" value="4" style="rounded=0;whiteSpace=wrap;html=1;" parent="nn0BUz3x2ecz8ijutJGo-6" vertex="1">
          <mxGeometry x="192.5" y="30" width="30" height="30" as="geometry" />
        </mxCell>
        <mxCell id="nn0BUz3x2ecz8ijutJGo-12" value="broker1" style="swimlane;" parent="nn0BUz3x2ecz8ijutJGo-1" vertex="1">
          <mxGeometry x="10" y="150" width="260" height="110" as="geometry" />
        </mxCell>
        <mxCell id="nn0BUz3x2ecz8ijutJGo-13" value="TopicA-partition1-leader" style="swimlane;startSize=23;" parent="nn0BUz3x2ecz8ijutJGo-12" vertex="1">
          <mxGeometry x="12.5" y="30" width="235" height="70" as="geometry" />
        </mxCell>
        <mxCell id="nn0BUz3x2ecz8ijutJGo-14" value="0" style="rounded=0;whiteSpace=wrap;html=1;" parent="nn0BUz3x2ecz8ijutJGo-13" vertex="1">
          <mxGeometry x="8.5" y="30" width="30" height="30" as="geometry" />
        </mxCell>
        <mxCell id="nn0BUz3x2ecz8ijutJGo-15" value="1" style="rounded=0;whiteSpace=wrap;html=1;" parent="nn0BUz3x2ecz8ijutJGo-13" vertex="1">
          <mxGeometry x="56.5" y="30" width="30" height="30" as="geometry" />
        </mxCell>
        <mxCell id="nn0BUz3x2ecz8ijutJGo-16" value="2" style="rounded=0;whiteSpace=wrap;html=1;" parent="nn0BUz3x2ecz8ijutJGo-13" vertex="1">
          <mxGeometry x="103.5" y="30" width="30" height="30" as="geometry" />
        </mxCell>
        <mxCell id="nn0BUz3x2ecz8ijutJGo-19" value="broker2" style="swimlane;" parent="nn0BUz3x2ecz8ijutJGo-1" vertex="1">
          <mxGeometry x="10" y="270" width="260" height="110" as="geometry" />
        </mxCell>
        <mxCell id="nn0BUz3x2ecz8ijutJGo-20" value="TopicA-partition2-leader" style="swimlane;startSize=23;" parent="nn0BUz3x2ecz8ijutJGo-19" vertex="1">
          <mxGeometry x="12.5" y="30" width="235" height="70" as="geometry" />
        </mxCell>
        <mxCell id="nn0BUz3x2ecz8ijutJGo-21" value="0" style="rounded=0;whiteSpace=wrap;html=1;" parent="nn0BUz3x2ecz8ijutJGo-20" vertex="1">
          <mxGeometry x="8.5" y="30" width="30" height="30" as="geometry" />
        </mxCell>
        <mxCell id="nn0BUz3x2ecz8ijutJGo-22" value="1" style="rounded=0;whiteSpace=wrap;html=1;" parent="nn0BUz3x2ecz8ijutJGo-20" vertex="1">
          <mxGeometry x="56.5" y="30" width="30" height="30" as="geometry" />
        </mxCell>
        <mxCell id="nn0BUz3x2ecz8ijutJGo-23" value="2" style="rounded=0;whiteSpace=wrap;html=1;" parent="nn0BUz3x2ecz8ijutJGo-20" vertex="1">
          <mxGeometry x="103.5" y="30" width="30" height="30" as="geometry" />
        </mxCell>
        <mxCell id="nn0BUz3x2ecz8ijutJGo-24" value="3" style="rounded=0;whiteSpace=wrap;html=1;" parent="nn0BUz3x2ecz8ijutJGo-20" vertex="1">
          <mxGeometry x="149.5" y="30" width="30" height="30" as="geometry" />
        </mxCell>
        <mxCell id="nn0BUz3x2ecz8ijutJGo-26" value="consumer1" style="rounded=0;whiteSpace=wrap;html=1;" parent="1" vertex="1">
          <mxGeometry x="681" y="166" width="110" height="40" as="geometry" />
        </mxCell>
        <mxCell id="nn0BUz3x2ecz8ijutJGo-27" value="consumer2" style="rounded=0;whiteSpace=wrap;html=1;" parent="1" vertex="1">
          <mxGeometry x="682" y="283" width="110" height="40" as="geometry" />
        </mxCell>
        <mxCell id="nn0BUz3x2ecz8ijutJGo-28" value="consumer3" style="rounded=0;whiteSpace=wrap;html=1;" parent="1" vertex="1">
          <mxGeometry x="682" y="402" width="110" height="40" as="geometry" />
        </mxCell>
        <mxCell id="nn0BUz3x2ecz8ijutJGo-29" style="edgeStyle=orthogonalEdgeStyle;rounded=0;orthogonalLoop=1;jettySize=auto;html=1;entryX=0;entryY=0.5;entryDx=0;entryDy=0;exitX=1;exitY=0.75;exitDx=0;exitDy=0;" parent="1" source="nn0BUz3x2ecz8ijutJGo-6" target="nn0BUz3x2ecz8ijutJGo-26" edge="1">
          <mxGeometry relative="1" as="geometry">
            <mxPoint x="542" y="180" as="sourcePoint" />
          </mxGeometry>
        </mxCell>
        <mxCell id="nn0BUz3x2ecz8ijutJGo-30" style="edgeStyle=orthogonalEdgeStyle;rounded=0;orthogonalLoop=1;jettySize=auto;html=1;entryX=0;entryY=0.5;entryDx=0;entryDy=0;exitX=1;exitY=0.75;exitDx=0;exitDy=0;" parent="1" source="nn0BUz3x2ecz8ijutJGo-13" target="nn0BUz3x2ecz8ijutJGo-27" edge="1">
          <mxGeometry relative="1" as="geometry">
            <mxPoint x="615" y="310" as="sourcePoint" />
          </mxGeometry>
        </mxCell>
        <mxCell id="nn0BUz3x2ecz8ijutJGo-32" value="消费速度: 10m/s" style="text;html=1;strokeColor=none;fillColor=none;align=center;verticalAlign=middle;whiteSpace=wrap;rounded=0;" parent="1" vertex="1">
          <mxGeometry x="686" y="135" width="102" height="40" as="geometry" />
        </mxCell>
        <mxCell id="nn0BUz3x2ecz8ijutJGo-34" value="消费速度: 40m/s" style="text;html=1;strokeColor=none;fillColor=none;align=center;verticalAlign=middle;whiteSpace=wrap;rounded=0;" parent="1" vertex="1">
          <mxGeometry x="686" y="252" width="102" height="40" as="geometry" />
        </mxCell>
        <mxCell id="nn0BUz3x2ecz8ijutJGo-35" value="消费速度: 30m/s" style="text;html=1;strokeColor=none;fillColor=none;align=center;verticalAlign=middle;whiteSpace=wrap;rounded=0;" parent="1" vertex="1">
          <mxGeometry x="685" y="373" width="102" height="40" as="geometry" />
        </mxCell>
        <mxCell id="nn0BUz3x2ecz8ijutJGo-36" value="&lt;h1&gt;Kafka 消费方式&lt;/h1&gt;&lt;p&gt;&lt;b&gt;pull（拉）模 式：&lt;/b&gt;&lt;br&gt;&amp;nbsp; &amp;nbsp; consumer采用从broker中主动拉取数据。&lt;br&gt;&lt;b&gt;&lt;i&gt;Kafka采用这种方式。&lt;/i&gt;&lt;/b&gt;&lt;/p&gt;&lt;p&gt;&lt;b&gt;&lt;i&gt;&lt;br&gt;&lt;/i&gt;push（推）模式：&lt;/b&gt;&lt;br&gt;&amp;nbsp; &amp;nbsp; Kafka没有采用这种方式，因为由broker&lt;br&gt;决定消息发送速率，很难适应所有消费者的&lt;br&gt;消费速率。例如推送的速度是50m/s，&lt;br&gt;Consumer1、Consumer2就来不及处理消息。&lt;br&gt;&lt;br&gt;&lt;br&gt;&amp;nbsp; &amp;nbsp; pull模式不足之处是，如果Kafka没有数&lt;br&gt;据，消费者可能会陷入循环中，一直返回&lt;br&gt;空数据。&lt;/p&gt;" style="text;html=1;strokeColor=none;fillColor=none;spacing=5;spacingTop=-20;whiteSpace=wrap;overflow=hidden;rounded=0;" parent="1" vertex="1">
          <mxGeometry x="40" y="80" width="260" height="270" as="geometry" />
        </mxCell>
        <mxCell id="nn0BUz3x2ecz8ijutJGo-38" style="edgeStyle=orthogonalEdgeStyle;rounded=0;orthogonalLoop=1;jettySize=auto;html=1;exitX=1;exitY=0.75;exitDx=0;exitDy=0;entryX=0;entryY=0.5;entryDx=0;entryDy=0;" parent="1" source="nn0BUz3x2ecz8ijutJGo-20" target="nn0BUz3x2ecz8ijutJGo-28" edge="1">
          <mxGeometry relative="1" as="geometry" />
        </mxCell>
      </root>
    </mxGraphModel>
  </diagram>
  <diagram id="7xzO-YrONTpCK03IxzGZ" name="06 消费者总体工作流程">
    <mxGraphModel dx="1662" dy="794" grid="1" gridSize="10" guides="1" tooltips="1" connect="1" arrows="1" fold="1" page="1" pageScale="1" pageWidth="827" pageHeight="1169" math="0" shadow="0">
      <root>
        <mxCell id="0" />
        <mxCell id="1" parent="0" />
        <mxCell id="dUpz7hZg6vN-reLnigoV-1" value="     kafka cluster" style="swimlane;strokeColor=#000000;fillColor=#FFFFFF;align=left;" parent="1" vertex="1">
          <mxGeometry x="210" y="63" width="751" height="487" as="geometry" />
        </mxCell>
        <mxCell id="TIanDENM7U3ck1hz0NYK-1" value="     broker0" style="swimlane;align=left;" parent="dUpz7hZg6vN-reLnigoV-1" vertex="1">
          <mxGeometry x="20" y="77" width="670" height="113" as="geometry" />
        </mxCell>
        <mxCell id="TIanDENM7U3ck1hz0NYK-2" value="TopicA-partition0-leader" style="swimlane;startSize=23;fillColor=#d5e8d4;strokeColor=#82b366;" parent="TIanDENM7U3ck1hz0NYK-1" vertex="1">
          <mxGeometry x="12.5" y="30" width="187.5" height="70" as="geometry" />
        </mxCell>
        <mxCell id="TIanDENM7U3ck1hz0NYK-3" value="0" style="rounded=0;whiteSpace=wrap;html=1;" parent="TIanDENM7U3ck1hz0NYK-2" vertex="1">
          <mxGeometry x="8.5" y="30" width="30" height="30" as="geometry" />
        </mxCell>
        <mxCell id="TIanDENM7U3ck1hz0NYK-4" value="1" style="rounded=0;whiteSpace=wrap;html=1;" parent="TIanDENM7U3ck1hz0NYK-2" vertex="1">
          <mxGeometry x="56.5" y="30" width="30" height="30" as="geometry" />
        </mxCell>
        <mxCell id="TIanDENM7U3ck1hz0NYK-5" value="2" style="rounded=0;whiteSpace=wrap;html=1;" parent="TIanDENM7U3ck1hz0NYK-2" vertex="1">
          <mxGeometry x="103.5" y="30" width="30" height="30" as="geometry" />
        </mxCell>
        <mxCell id="TIanDENM7U3ck1hz0NYK-6" value="3" style="rounded=0;whiteSpace=wrap;html=1;" parent="TIanDENM7U3ck1hz0NYK-2" vertex="1">
          <mxGeometry x="149.5" y="30" width="30" height="30" as="geometry" />
        </mxCell>
        <mxCell id="gEhlZPpIQC-xD0L85-xA-1" value="TopicA-partition1-follower" style="swimlane;startSize=23;fillColor=#dae8fc;strokeColor=#6c8ebf;" parent="TIanDENM7U3ck1hz0NYK-1" vertex="1">
          <mxGeometry x="290" y="30" width="187.5" height="70" as="geometry" />
        </mxCell>
        <mxCell id="gEhlZPpIQC-xD0L85-xA-2" value="0" style="rounded=0;whiteSpace=wrap;html=1;" parent="gEhlZPpIQC-xD0L85-xA-1" vertex="1">
          <mxGeometry x="8.5" y="30" width="30" height="30" as="geometry" />
        </mxCell>
        <mxCell id="gEhlZPpIQC-xD0L85-xA-3" value="1" style="rounded=0;whiteSpace=wrap;html=1;" parent="gEhlZPpIQC-xD0L85-xA-1" vertex="1">
          <mxGeometry x="56.5" y="30" width="30" height="30" as="geometry" />
        </mxCell>
        <mxCell id="gEhlZPpIQC-xD0L85-xA-4" value="2" style="rounded=0;whiteSpace=wrap;html=1;" parent="gEhlZPpIQC-xD0L85-xA-1" vertex="1">
          <mxGeometry x="103.5" y="30" width="30" height="30" as="geometry" />
        </mxCell>
        <mxCell id="gEhlZPpIQC-xD0L85-xA-5" value="3" style="rounded=0;whiteSpace=wrap;html=1;" parent="gEhlZPpIQC-xD0L85-xA-1" vertex="1">
          <mxGeometry x="149.5" y="30" width="30" height="30" as="geometry" />
        </mxCell>
        <mxCell id="gEhlZPpIQC-xD0L85-xA-6" value="__consumer_offsets" style="rounded=0;whiteSpace=wrap;html=1;strokeColor=#d6b656;fillColor=#fff2cc;" parent="TIanDENM7U3ck1hz0NYK-1" vertex="1">
          <mxGeometry x="500" y="30" width="160" height="70" as="geometry" />
        </mxCell>
        <mxCell id="gEhlZPpIQC-xD0L85-xA-7" value="     broker1" style="swimlane;align=left;" parent="dUpz7hZg6vN-reLnigoV-1" vertex="1">
          <mxGeometry x="20" y="207" width="670" height="113" as="geometry" />
        </mxCell>
        <mxCell id="gEhlZPpIQC-xD0L85-xA-8" value="TopicA-partition1-leader" style="swimlane;startSize=23;fillColor=#dae8fc;strokeColor=#6c8ebf;" parent="gEhlZPpIQC-xD0L85-xA-7" vertex="1">
          <mxGeometry x="12.5" y="30" width="187.5" height="70" as="geometry" />
        </mxCell>
        <mxCell id="gEhlZPpIQC-xD0L85-xA-9" value="0" style="rounded=0;whiteSpace=wrap;html=1;" parent="gEhlZPpIQC-xD0L85-xA-8" vertex="1">
          <mxGeometry x="8.5" y="30" width="30" height="30" as="geometry" />
        </mxCell>
        <mxCell id="gEhlZPpIQC-xD0L85-xA-10" value="1" style="rounded=0;whiteSpace=wrap;html=1;" parent="gEhlZPpIQC-xD0L85-xA-8" vertex="1">
          <mxGeometry x="56.5" y="30" width="30" height="30" as="geometry" />
        </mxCell>
        <mxCell id="gEhlZPpIQC-xD0L85-xA-11" value="2" style="rounded=0;whiteSpace=wrap;html=1;" parent="gEhlZPpIQC-xD0L85-xA-8" vertex="1">
          <mxGeometry x="103.5" y="30" width="30" height="30" as="geometry" />
        </mxCell>
        <mxCell id="gEhlZPpIQC-xD0L85-xA-12" value="3" style="rounded=0;whiteSpace=wrap;html=1;" parent="gEhlZPpIQC-xD0L85-xA-8" vertex="1">
          <mxGeometry x="149.5" y="30" width="30" height="30" as="geometry" />
        </mxCell>
        <mxCell id="gEhlZPpIQC-xD0L85-xA-13" value="TopicA-partition2-follower" style="swimlane;startSize=23;fillColor=#ffe6cc;strokeColor=#d79b00;" parent="gEhlZPpIQC-xD0L85-xA-7" vertex="1">
          <mxGeometry x="290" y="30" width="187.5" height="70" as="geometry" />
        </mxCell>
        <mxCell id="gEhlZPpIQC-xD0L85-xA-14" value="0" style="rounded=0;whiteSpace=wrap;html=1;" parent="gEhlZPpIQC-xD0L85-xA-13" vertex="1">
          <mxGeometry x="8.5" y="30" width="30" height="30" as="geometry" />
        </mxCell>
        <mxCell id="gEhlZPpIQC-xD0L85-xA-15" value="1" style="rounded=0;whiteSpace=wrap;html=1;" parent="gEhlZPpIQC-xD0L85-xA-13" vertex="1">
          <mxGeometry x="56.5" y="30" width="30" height="30" as="geometry" />
        </mxCell>
        <mxCell id="gEhlZPpIQC-xD0L85-xA-16" value="2" style="rounded=0;whiteSpace=wrap;html=1;" parent="gEhlZPpIQC-xD0L85-xA-13" vertex="1">
          <mxGeometry x="103.5" y="30" width="30" height="30" as="geometry" />
        </mxCell>
        <mxCell id="gEhlZPpIQC-xD0L85-xA-17" value="3" style="rounded=0;whiteSpace=wrap;html=1;" parent="gEhlZPpIQC-xD0L85-xA-13" vertex="1">
          <mxGeometry x="149.5" y="30" width="30" height="30" as="geometry" />
        </mxCell>
        <mxCell id="gEhlZPpIQC-xD0L85-xA-18" value="__consumer_offsets" style="rounded=0;whiteSpace=wrap;html=1;strokeColor=#d6b656;fillColor=#fff2cc;" parent="gEhlZPpIQC-xD0L85-xA-7" vertex="1">
          <mxGeometry x="500" y="30" width="160" height="70" as="geometry" />
        </mxCell>
        <mxCell id="gEhlZPpIQC-xD0L85-xA-19" value="     broker2" style="swimlane;align=left;" parent="dUpz7hZg6vN-reLnigoV-1" vertex="1">
          <mxGeometry x="20" y="337" width="670" height="113" as="geometry" />
        </mxCell>
        <mxCell id="gEhlZPpIQC-xD0L85-xA-20" value="TopicA-partition2-leader" style="swimlane;startSize=23;fillColor=#ffe6cc;strokeColor=#d79b00;" parent="gEhlZPpIQC-xD0L85-xA-19" vertex="1">
          <mxGeometry x="12.5" y="30" width="187.5" height="70" as="geometry" />
        </mxCell>
        <mxCell id="gEhlZPpIQC-xD0L85-xA-21" value="0" style="rounded=0;whiteSpace=wrap;html=1;" parent="gEhlZPpIQC-xD0L85-xA-20" vertex="1">
          <mxGeometry x="8.5" y="30" width="30" height="30" as="geometry" />
        </mxCell>
        <mxCell id="gEhlZPpIQC-xD0L85-xA-22" value="1" style="rounded=0;whiteSpace=wrap;html=1;" parent="gEhlZPpIQC-xD0L85-xA-20" vertex="1">
          <mxGeometry x="56.5" y="30" width="30" height="30" as="geometry" />
        </mxCell>
        <mxCell id="gEhlZPpIQC-xD0L85-xA-23" value="2" style="rounded=0;whiteSpace=wrap;html=1;" parent="gEhlZPpIQC-xD0L85-xA-20" vertex="1">
          <mxGeometry x="103.5" y="30" width="30" height="30" as="geometry" />
        </mxCell>
        <mxCell id="gEhlZPpIQC-xD0L85-xA-24" value="3" style="rounded=0;whiteSpace=wrap;html=1;" parent="gEhlZPpIQC-xD0L85-xA-20" vertex="1">
          <mxGeometry x="149.5" y="30" width="30" height="30" as="geometry" />
        </mxCell>
        <mxCell id="gEhlZPpIQC-xD0L85-xA-25" value="TopicA-partition0-follower" style="swimlane;startSize=23;fillColor=#d5e8d4;strokeColor=#82b366;" parent="gEhlZPpIQC-xD0L85-xA-19" vertex="1">
          <mxGeometry x="290" y="30" width="187.5" height="70" as="geometry" />
        </mxCell>
        <mxCell id="gEhlZPpIQC-xD0L85-xA-26" value="0" style="rounded=0;whiteSpace=wrap;html=1;" parent="gEhlZPpIQC-xD0L85-xA-25" vertex="1">
          <mxGeometry x="8.5" y="30" width="30" height="30" as="geometry" />
        </mxCell>
        <mxCell id="gEhlZPpIQC-xD0L85-xA-27" value="1" style="rounded=0;whiteSpace=wrap;html=1;" parent="gEhlZPpIQC-xD0L85-xA-25" vertex="1">
          <mxGeometry x="56.5" y="30" width="30" height="30" as="geometry" />
        </mxCell>
        <mxCell id="gEhlZPpIQC-xD0L85-xA-28" value="2" style="rounded=0;whiteSpace=wrap;html=1;" parent="gEhlZPpIQC-xD0L85-xA-25" vertex="1">
          <mxGeometry x="103.5" y="30" width="30" height="30" as="geometry" />
        </mxCell>
        <mxCell id="gEhlZPpIQC-xD0L85-xA-29" value="3" style="rounded=0;whiteSpace=wrap;html=1;" parent="gEhlZPpIQC-xD0L85-xA-25" vertex="1">
          <mxGeometry x="149.5" y="30" width="30" height="30" as="geometry" />
        </mxCell>
        <mxCell id="gEhlZPpIQC-xD0L85-xA-30" value="__consumer_offsets" style="rounded=0;whiteSpace=wrap;html=1;strokeColor=#d6b656;fillColor=#fff2cc;" parent="gEhlZPpIQC-xD0L85-xA-19" vertex="1">
          <mxGeometry x="500" y="30" width="160" height="70" as="geometry" />
        </mxCell>
        <mxCell id="gEhlZPpIQC-xD0L85-xA-33" style="edgeStyle=none;rounded=0;orthogonalLoop=1;jettySize=auto;html=1;exitX=1;exitY=0.5;exitDx=0;exitDy=0;entryX=0.5;entryY=0;entryDx=0;entryDy=0;fillColor=#e51400;strokeColor=#B20000;" parent="dUpz7hZg6vN-reLnigoV-1" source="gEhlZPpIQC-xD0L85-xA-31" target="gEhlZPpIQC-xD0L85-xA-6" edge="1">
          <mxGeometry relative="1" as="geometry" />
        </mxCell>
        <mxCell id="gEhlZPpIQC-xD0L85-xA-31" value="offset" style="rounded=0;whiteSpace=wrap;html=1;strokeColor=#B20000;fillColor=#e51400;fontColor=#ffffff;" parent="dUpz7hZg6vN-reLnigoV-1" vertex="1">
          <mxGeometry x="277.75" y="37" width="70.5" height="23" as="geometry" />
        </mxCell>
        <mxCell id="gEhlZPpIQC-xD0L85-xA-32" style="rounded=0;orthogonalLoop=1;jettySize=auto;html=1;exitX=0.5;exitY=0;exitDx=0;exitDy=0;entryX=0;entryY=0.25;entryDx=0;entryDy=0;fillColor=#e51400;strokeColor=#B20000;" parent="dUpz7hZg6vN-reLnigoV-1" source="TIanDENM7U3ck1hz0NYK-6" target="gEhlZPpIQC-xD0L85-xA-31" edge="1">
          <mxGeometry relative="1" as="geometry" />
        </mxCell>
        <mxCell id="gEhlZPpIQC-xD0L85-xA-36" style="edgeStyle=none;rounded=0;orthogonalLoop=1;jettySize=auto;html=1;exitX=1;exitY=0.75;exitDx=0;exitDy=0;entryX=0;entryY=0.5;entryDx=0;entryDy=0;fillColor=#d5e8d4;strokeColor=#82b366;" parent="dUpz7hZg6vN-reLnigoV-1" source="TIanDENM7U3ck1hz0NYK-2" target="gEhlZPpIQC-xD0L85-xA-25" edge="1">
          <mxGeometry relative="1" as="geometry" />
        </mxCell>
        <mxCell id="gEhlZPpIQC-xD0L85-xA-38" style="edgeStyle=none;rounded=0;orthogonalLoop=1;jettySize=auto;html=1;exitX=1;exitY=0.5;exitDx=0;exitDy=0;entryX=0;entryY=0.5;entryDx=0;entryDy=0;fillColor=#dae8fc;strokeColor=#6c8ebf;" parent="dUpz7hZg6vN-reLnigoV-1" source="gEhlZPpIQC-xD0L85-xA-8" target="gEhlZPpIQC-xD0L85-xA-1" edge="1">
          <mxGeometry relative="1" as="geometry" />
        </mxCell>
        <mxCell id="gEhlZPpIQC-xD0L85-xA-39" style="edgeStyle=none;rounded=0;orthogonalLoop=1;jettySize=auto;html=1;exitX=1;exitY=0.5;exitDx=0;exitDy=0;entryX=0;entryY=0.5;entryDx=0;entryDy=0;fillColor=#ffe6cc;strokeColor=#d79b00;" parent="dUpz7hZg6vN-reLnigoV-1" source="gEhlZPpIQC-xD0L85-xA-20" target="gEhlZPpIQC-xD0L85-xA-13" edge="1">
          <mxGeometry relative="1" as="geometry" />
        </mxCell>
        <mxCell id="gEhlZPpIQC-xD0L85-xA-59" value="每个消费者的offset由消费&lt;br/&gt;者提交到系统主题保存" style="text;html=1;align=center;verticalAlign=middle;resizable=0;points=[];autosize=1;strokeColor=none;fillColor=none;" parent="dUpz7hZg6vN-reLnigoV-1" vertex="1">
          <mxGeometry x="370" y="37" width="150" height="30" as="geometry" />
        </mxCell>
        <mxCell id="gEhlZPpIQC-xD0L85-xA-41" style="edgeStyle=none;rounded=0;orthogonalLoop=1;jettySize=auto;html=1;exitX=1;exitY=0.5;exitDx=0;exitDy=0;entryX=0;entryY=0.5;entryDx=0;entryDy=0;" parent="1" source="gEhlZPpIQC-xD0L85-xA-40" target="TIanDENM7U3ck1hz0NYK-1" edge="1">
          <mxGeometry relative="1" as="geometry" />
        </mxCell>
        <mxCell id="gEhlZPpIQC-xD0L85-xA-42" style="edgeStyle=none;rounded=0;orthogonalLoop=1;jettySize=auto;html=1;exitX=1;exitY=0.5;exitDx=0;exitDy=0;" parent="1" source="gEhlZPpIQC-xD0L85-xA-40" edge="1">
          <mxGeometry relative="1" as="geometry">
            <mxPoint x="230" y="340" as="targetPoint" />
          </mxGeometry>
        </mxCell>
        <mxCell id="gEhlZPpIQC-xD0L85-xA-43" style="edgeStyle=none;rounded=0;orthogonalLoop=1;jettySize=auto;html=1;exitX=1;exitY=0.5;exitDx=0;exitDy=0;" parent="1" source="gEhlZPpIQC-xD0L85-xA-40" edge="1">
          <mxGeometry relative="1" as="geometry">
            <mxPoint x="230" y="460" as="targetPoint" />
          </mxGeometry>
        </mxCell>
        <mxCell id="gEhlZPpIQC-xD0L85-xA-40" value="Producer" style="rounded=0;whiteSpace=wrap;html=1;fillColor=#ffff88;strokeColor=#36393d;" parent="1" vertex="1">
          <mxGeometry x="20" y="314" width="120" height="50" as="geometry" />
        </mxCell>
        <mxCell id="gEhlZPpIQC-xD0L85-xA-44" value="group" style="swimlane;fillColor=#e1d5e7;strokeColor=#9673a6;" parent="1" vertex="1">
          <mxGeometry x="1050" y="253" width="149" height="190" as="geometry" />
        </mxCell>
        <mxCell id="gEhlZPpIQC-xD0L85-xA-45" value="&lt;span style=&quot;&quot;&gt;consumer&lt;/span&gt;" style="rounded=0;whiteSpace=wrap;html=1;strokeColor=#666666;fillColor=#f5f5f5;fontColor=#333333;" parent="gEhlZPpIQC-xD0L85-xA-44" vertex="1">
          <mxGeometry x="14" y="40" width="121" height="33" as="geometry" />
        </mxCell>
        <mxCell id="gEhlZPpIQC-xD0L85-xA-46" value="&lt;span style=&quot;&quot;&gt;consumer&lt;/span&gt;" style="rounded=0;whiteSpace=wrap;html=1;strokeColor=#666666;fillColor=#f5f5f5;fontColor=#333333;" parent="gEhlZPpIQC-xD0L85-xA-44" vertex="1">
          <mxGeometry x="14" y="89" width="121" height="33" as="geometry" />
        </mxCell>
        <mxCell id="gEhlZPpIQC-xD0L85-xA-47" value="&lt;span style=&quot;&quot;&gt;consumer&lt;/span&gt;" style="rounded=0;whiteSpace=wrap;html=1;strokeColor=#666666;fillColor=#f5f5f5;fontColor=#333333;" parent="gEhlZPpIQC-xD0L85-xA-44" vertex="1">
          <mxGeometry x="14" y="139" width="121" height="33" as="geometry" />
        </mxCell>
        <mxCell id="gEhlZPpIQC-xD0L85-xA-48" value="&lt;span style=&quot;&quot;&gt;consumer&lt;/span&gt;" style="rounded=0;whiteSpace=wrap;html=1;strokeColor=#666666;fillColor=#f5f5f5;fontColor=#333333;" parent="1" vertex="1">
          <mxGeometry x="1064" y="490" width="121" height="33" as="geometry" />
        </mxCell>
        <mxCell id="gEhlZPpIQC-xD0L85-xA-49" style="edgeStyle=orthogonalEdgeStyle;rounded=0;orthogonalLoop=1;jettySize=auto;html=1;exitX=1;exitY=0.75;exitDx=0;exitDy=0;entryX=0.452;entryY=0.97;entryDx=0;entryDy=0;entryPerimeter=0;" parent="1" source="gEhlZPpIQC-xD0L85-xA-20" target="gEhlZPpIQC-xD0L85-xA-48" edge="1">
          <mxGeometry relative="1" as="geometry">
            <mxPoint x="1060" y="560" as="targetPoint" />
            <Array as="points">
              <mxPoint x="450" y="483" />
              <mxPoint x="450" y="580" />
              <mxPoint x="1119" y="580" />
            </Array>
          </mxGeometry>
        </mxCell>
        <mxCell id="gEhlZPpIQC-xD0L85-xA-50" style="rounded=0;orthogonalLoop=1;jettySize=auto;html=1;exitX=1;exitY=0.75;exitDx=0;exitDy=0;edgeStyle=orthogonalEdgeStyle;entryX=0.75;entryY=1;entryDx=0;entryDy=0;" parent="1" source="gEhlZPpIQC-xD0L85-xA-8" target="gEhlZPpIQC-xD0L85-xA-48" edge="1">
          <mxGeometry relative="1" as="geometry">
            <mxPoint x="1155" y="530" as="targetPoint" />
            <Array as="points">
              <mxPoint x="470" y="353" />
              <mxPoint x="470" y="570" />
              <mxPoint x="1155" y="570" />
            </Array>
          </mxGeometry>
        </mxCell>
        <mxCell id="gEhlZPpIQC-xD0L85-xA-51" style="rounded=0;orthogonalLoop=1;jettySize=auto;html=1;entryX=0;entryY=0.75;entryDx=0;entryDy=0;" parent="1" target="gEhlZPpIQC-xD0L85-xA-45" edge="1">
          <mxGeometry relative="1" as="geometry">
            <mxPoint x="430" y="210" as="sourcePoint" />
          </mxGeometry>
        </mxCell>
        <mxCell id="gEhlZPpIQC-xD0L85-xA-52" style="edgeStyle=none;rounded=0;orthogonalLoop=1;jettySize=auto;html=1;exitX=1;exitY=0.25;exitDx=0;exitDy=0;entryX=0;entryY=0.5;entryDx=0;entryDy=0;" parent="1" source="gEhlZPpIQC-xD0L85-xA-8" target="gEhlZPpIQC-xD0L85-xA-46" edge="1">
          <mxGeometry relative="1" as="geometry" />
        </mxCell>
        <mxCell id="gEhlZPpIQC-xD0L85-xA-53" style="edgeStyle=none;rounded=0;orthogonalLoop=1;jettySize=auto;html=1;exitX=1;exitY=0.25;exitDx=0;exitDy=0;entryX=0;entryY=0.5;entryDx=0;entryDy=0;" parent="1" source="gEhlZPpIQC-xD0L85-xA-20" target="gEhlZPpIQC-xD0L85-xA-47" edge="1">
          <mxGeometry relative="1" as="geometry" />
        </mxCell>
        <mxCell id="gEhlZPpIQC-xD0L85-xA-54" value="每个分区的数据只&lt;br/&gt;能由消费者组中一&lt;br/&gt;个消费者消费" style="text;html=1;align=center;verticalAlign=middle;resizable=0;points=[];autosize=1;strokeColor=none;fillColor=none;" parent="1" vertex="1">
          <mxGeometry x="1069.5" y="203" width="110" height="50" as="geometry" />
        </mxCell>
        <mxCell id="gEhlZPpIQC-xD0L85-xA-55" value="一个消费者可以消&lt;br/&gt;费多个分区数据" style="text;html=1;align=center;verticalAlign=middle;resizable=0;points=[];autosize=1;strokeColor=none;fillColor=none;" parent="1" vertex="1">
          <mxGeometry x="1069.5" y="460" width="110" height="30" as="geometry" />
        </mxCell>
        <mxCell id="gEhlZPpIQC-xD0L85-xA-56" value="&lt;span style=&quot;&quot;&gt;consumer&lt;/span&gt;" style="rounded=0;whiteSpace=wrap;html=1;strokeColor=#666666;fillColor=#f5f5f5;fontColor=#333333;" parent="1" vertex="1">
          <mxGeometry x="1058.5" y="140" width="121" height="33" as="geometry" />
        </mxCell>
        <mxCell id="gEhlZPpIQC-xD0L85-xA-58" style="edgeStyle=orthogonalEdgeStyle;rounded=0;orthogonalLoop=1;jettySize=auto;html=1;exitX=1;exitY=0.25;exitDx=0;exitDy=0;entryX=0.558;entryY=0.061;entryDx=0;entryDy=0;entryPerimeter=0;" parent="1" source="TIanDENM7U3ck1hz0NYK-2" target="gEhlZPpIQC-xD0L85-xA-56" edge="1">
          <mxGeometry relative="1" as="geometry">
            <Array as="points">
              <mxPoint x="460" y="188" />
              <mxPoint x="460" y="40" />
              <mxPoint x="1126" y="40" />
            </Array>
          </mxGeometry>
        </mxCell>
      </root>
    </mxGraphModel>
  </diagram>
  <diagram id="eeAClpt7NOO1_LJxoYGr" name="07 消费者组初始化流程">
    <mxGraphModel dx="1022" dy="412" grid="1" gridSize="10" guides="1" tooltips="1" connect="1" arrows="1" fold="1" page="1" pageScale="1" pageWidth="827" pageHeight="1169" math="0" shadow="0">
      <root>
        <mxCell id="0" />
        <mxCell id="1" parent="0" />
        <mxCell id="Zp11ZbCgC5UE5Tyb08me-1" value="     kafka cluster" style="swimlane;strokeColor=#000000;fillColor=#FFFFFF;align=left;" vertex="1" parent="1">
          <mxGeometry x="260" y="133" width="420" height="440" as="geometry" />
        </mxCell>
        <mxCell id="Zp11ZbCgC5UE5Tyb08me-2" value="     broker0" style="swimlane;align=left;" vertex="1" parent="Zp11ZbCgC5UE5Tyb08me-1">
          <mxGeometry x="20" y="38.5" width="380" height="113" as="geometry" />
        </mxCell>
        <mxCell id="Zp11ZbCgC5UE5Tyb08me-3" value="TopicA-partition0-leader" style="swimlane;startSize=23;fillColor=#d5e8d4;strokeColor=#82b366;" vertex="1" parent="Zp11ZbCgC5UE5Tyb08me-2">
          <mxGeometry x="18.5" y="30" width="187.5" height="70" as="geometry" />
        </mxCell>
        <mxCell id="Zp11ZbCgC5UE5Tyb08me-4" value="0" style="rounded=0;whiteSpace=wrap;html=1;" vertex="1" parent="Zp11ZbCgC5UE5Tyb08me-3">
          <mxGeometry x="8.5" y="30" width="30" height="30" as="geometry" />
        </mxCell>
        <mxCell id="Zp11ZbCgC5UE5Tyb08me-5" value="1" style="rounded=0;whiteSpace=wrap;html=1;" vertex="1" parent="Zp11ZbCgC5UE5Tyb08me-3">
          <mxGeometry x="56.5" y="30" width="30" height="30" as="geometry" />
        </mxCell>
        <mxCell id="Zp11ZbCgC5UE5Tyb08me-6" value="2" style="rounded=0;whiteSpace=wrap;html=1;" vertex="1" parent="Zp11ZbCgC5UE5Tyb08me-3">
          <mxGeometry x="103.5" y="30" width="30" height="30" as="geometry" />
        </mxCell>
        <mxCell id="Zp11ZbCgC5UE5Tyb08me-7" value="3" style="rounded=0;whiteSpace=wrap;html=1;" vertex="1" parent="Zp11ZbCgC5UE5Tyb08me-3">
          <mxGeometry x="149.5" y="30" width="30" height="30" as="geometry" />
        </mxCell>
        <mxCell id="Zp11ZbCgC5UE5Tyb08me-13" value="coordinator" style="rounded=0;whiteSpace=wrap;html=1;strokeColor=#d6b656;fillColor=#fff2cc;" vertex="1" parent="Zp11ZbCgC5UE5Tyb08me-2">
          <mxGeometry x="235" y="70" width="122" height="30" as="geometry" />
        </mxCell>
        <mxCell id="Zp11ZbCgC5UE5Tyb08me-63" value="__consumer_offsets-partition1" style="rounded=0;whiteSpace=wrap;html=1;strokeColor=#d6b656;fillColor=#fff2cc;" vertex="1" parent="Zp11ZbCgC5UE5Tyb08me-2">
          <mxGeometry x="235" y="30" width="122" height="30" as="geometry" />
        </mxCell>
        <mxCell id="Zp11ZbCgC5UE5Tyb08me-14" value="     broker1" style="swimlane;align=left;" vertex="1" parent="Zp11ZbCgC5UE5Tyb08me-1">
          <mxGeometry x="20" y="168.5" width="380" height="113" as="geometry" />
        </mxCell>
        <mxCell id="Zp11ZbCgC5UE5Tyb08me-15" value="TopicA-partition1-leader" style="swimlane;startSize=23;fillColor=#dae8fc;strokeColor=#6c8ebf;" vertex="1" parent="Zp11ZbCgC5UE5Tyb08me-14">
          <mxGeometry x="18.5" y="30" width="187.5" height="70" as="geometry" />
        </mxCell>
        <mxCell id="Zp11ZbCgC5UE5Tyb08me-16" value="0" style="rounded=0;whiteSpace=wrap;html=1;" vertex="1" parent="Zp11ZbCgC5UE5Tyb08me-15">
          <mxGeometry x="8.5" y="30" width="30" height="30" as="geometry" />
        </mxCell>
        <mxCell id="Zp11ZbCgC5UE5Tyb08me-17" value="1" style="rounded=0;whiteSpace=wrap;html=1;" vertex="1" parent="Zp11ZbCgC5UE5Tyb08me-15">
          <mxGeometry x="56.5" y="30" width="30" height="30" as="geometry" />
        </mxCell>
        <mxCell id="Zp11ZbCgC5UE5Tyb08me-18" value="2" style="rounded=0;whiteSpace=wrap;html=1;" vertex="1" parent="Zp11ZbCgC5UE5Tyb08me-15">
          <mxGeometry x="103.5" y="30" width="30" height="30" as="geometry" />
        </mxCell>
        <mxCell id="Zp11ZbCgC5UE5Tyb08me-19" value="3" style="rounded=0;whiteSpace=wrap;html=1;" vertex="1" parent="Zp11ZbCgC5UE5Tyb08me-15">
          <mxGeometry x="149.5" y="30" width="30" height="30" as="geometry" />
        </mxCell>
        <mxCell id="Zp11ZbCgC5UE5Tyb08me-64" value="coordinator" style="rounded=0;whiteSpace=wrap;html=1;strokeColor=#d6b656;fillColor=#fff2cc;" vertex="1" parent="Zp11ZbCgC5UE5Tyb08me-14">
          <mxGeometry x="230" y="60" width="127" height="49.5" as="geometry" />
        </mxCell>
        <mxCell id="Zp11ZbCgC5UE5Tyb08me-65" value="__consumer_offsets-partition2" style="rounded=0;whiteSpace=wrap;html=1;strokeColor=#d6b656;fillColor=#fff2cc;" vertex="1" parent="Zp11ZbCgC5UE5Tyb08me-14">
          <mxGeometry x="217" y="25.5" width="128" height="28.5" as="geometry" />
        </mxCell>
        <mxCell id="Zp11ZbCgC5UE5Tyb08me-26" value="     broker2" style="swimlane;align=left;" vertex="1" parent="Zp11ZbCgC5UE5Tyb08me-1">
          <mxGeometry x="20" y="298.5" width="380" height="123" as="geometry" />
        </mxCell>
        <mxCell id="Zp11ZbCgC5UE5Tyb08me-27" value="TopicA-partition2-leader" style="swimlane;startSize=23;fillColor=#ffe6cc;strokeColor=#d79b00;" vertex="1" parent="Zp11ZbCgC5UE5Tyb08me-26">
          <mxGeometry x="18.5" y="30" width="187.5" height="70" as="geometry" />
        </mxCell>
        <mxCell id="Zp11ZbCgC5UE5Tyb08me-28" value="0" style="rounded=0;whiteSpace=wrap;html=1;" vertex="1" parent="Zp11ZbCgC5UE5Tyb08me-27">
          <mxGeometry x="8.5" y="30" width="30" height="30" as="geometry" />
        </mxCell>
        <mxCell id="Zp11ZbCgC5UE5Tyb08me-29" value="1" style="rounded=0;whiteSpace=wrap;html=1;" vertex="1" parent="Zp11ZbCgC5UE5Tyb08me-27">
          <mxGeometry x="56.5" y="30" width="30" height="30" as="geometry" />
        </mxCell>
        <mxCell id="Zp11ZbCgC5UE5Tyb08me-30" value="2" style="rounded=0;whiteSpace=wrap;html=1;" vertex="1" parent="Zp11ZbCgC5UE5Tyb08me-27">
          <mxGeometry x="103.5" y="30" width="30" height="30" as="geometry" />
        </mxCell>
        <mxCell id="Zp11ZbCgC5UE5Tyb08me-31" value="3" style="rounded=0;whiteSpace=wrap;html=1;" vertex="1" parent="Zp11ZbCgC5UE5Tyb08me-27">
          <mxGeometry x="149.5" y="30" width="30" height="30" as="geometry" />
        </mxCell>
        <mxCell id="Zp11ZbCgC5UE5Tyb08me-66" value="coordinator" style="rounded=0;whiteSpace=wrap;html=1;strokeColor=#d6b656;fillColor=#fff2cc;" vertex="1" parent="Zp11ZbCgC5UE5Tyb08me-26">
          <mxGeometry x="235" y="70" width="122" height="30" as="geometry" />
        </mxCell>
        <mxCell id="Zp11ZbCgC5UE5Tyb08me-67" value="__consumer_offsets-partition3" style="rounded=0;whiteSpace=wrap;html=1;strokeColor=#d6b656;fillColor=#fff2cc;" vertex="1" parent="Zp11ZbCgC5UE5Tyb08me-26">
          <mxGeometry x="235" y="30" width="122" height="30" as="geometry" />
        </mxCell>
        <mxCell id="Zp11ZbCgC5UE5Tyb08me-45" style="edgeStyle=none;rounded=0;orthogonalLoop=1;jettySize=auto;html=1;exitX=1;exitY=0.5;exitDx=0;exitDy=0;entryX=0;entryY=0.5;entryDx=0;entryDy=0;" edge="1" parent="1" source="Zp11ZbCgC5UE5Tyb08me-48" target="Zp11ZbCgC5UE5Tyb08me-2">
          <mxGeometry relative="1" as="geometry" />
        </mxCell>
        <mxCell id="Zp11ZbCgC5UE5Tyb08me-46" style="edgeStyle=none;rounded=0;orthogonalLoop=1;jettySize=auto;html=1;exitX=1;exitY=0.5;exitDx=0;exitDy=0;" edge="1" parent="1" source="Zp11ZbCgC5UE5Tyb08me-48">
          <mxGeometry relative="1" as="geometry">
            <mxPoint x="280" y="370" as="targetPoint" />
          </mxGeometry>
        </mxCell>
        <mxCell id="Zp11ZbCgC5UE5Tyb08me-47" style="edgeStyle=none;rounded=0;orthogonalLoop=1;jettySize=auto;html=1;exitX=1;exitY=0.5;exitDx=0;exitDy=0;entryX=0;entryY=0.5;entryDx=0;entryDy=0;" edge="1" parent="1" source="Zp11ZbCgC5UE5Tyb08me-48" target="Zp11ZbCgC5UE5Tyb08me-26">
          <mxGeometry relative="1" as="geometry">
            <mxPoint x="272" y="500" as="targetPoint" />
          </mxGeometry>
        </mxCell>
        <mxCell id="Zp11ZbCgC5UE5Tyb08me-48" value="Producer" style="rounded=0;whiteSpace=wrap;html=1;fillColor=#ffff88;strokeColor=#36393d;" vertex="1" parent="1">
          <mxGeometry x="62" y="354" width="128" height="36" as="geometry" />
        </mxCell>
        <mxCell id="Zp11ZbCgC5UE5Tyb08me-49" value="group" style="swimlane;fillColor=#e1d5e7;strokeColor=#9673a6;" vertex="1" parent="1">
          <mxGeometry x="950" y="216" width="170" height="368" as="geometry" />
        </mxCell>
        <mxCell id="Zp11ZbCgC5UE5Tyb08me-50" value="&lt;span style=&quot;&quot;&gt;consumer&lt;/span&gt;" style="rounded=0;whiteSpace=wrap;html=1;strokeColor=#666666;fillColor=#f5f5f5;fontColor=#333333;" vertex="1" parent="Zp11ZbCgC5UE5Tyb08me-49">
          <mxGeometry x="19.5" y="60" width="121" height="33" as="geometry" />
        </mxCell>
        <mxCell id="Zp11ZbCgC5UE5Tyb08me-51" value="&lt;span style=&quot;&quot;&gt;consumer&lt;/span&gt;" style="rounded=0;whiteSpace=wrap;html=1;strokeColor=#666666;fillColor=#f5f5f5;fontColor=#333333;" vertex="1" parent="Zp11ZbCgC5UE5Tyb08me-49">
          <mxGeometry x="19.5" y="158" width="121" height="33" as="geometry" />
        </mxCell>
        <mxCell id="Zp11ZbCgC5UE5Tyb08me-52" value="&lt;span style=&quot;&quot;&gt;consumer&lt;/span&gt;" style="rounded=0;whiteSpace=wrap;html=1;strokeColor=#666666;fillColor=#f5f5f5;fontColor=#333333;" vertex="1" parent="Zp11ZbCgC5UE5Tyb08me-49">
          <mxGeometry x="19.5" y="250" width="121" height="33" as="geometry" />
        </mxCell>
        <mxCell id="Zp11ZbCgC5UE5Tyb08me-99" value="&lt;b&gt;&lt;font color=&quot;#ff0000&quot;&gt;Leader&lt;/font&gt;&lt;/b&gt;" style="text;html=1;align=center;verticalAlign=middle;resizable=0;points=[];autosize=1;strokeColor=none;fillColor=none;" vertex="1" parent="Zp11ZbCgC5UE5Tyb08me-49">
          <mxGeometry x="90.5" y="194" width="50" height="20" as="geometry" />
        </mxCell>
        <mxCell id="Zp11ZbCgC5UE5Tyb08me-112" value="4" style="text;html=1;align=center;verticalAlign=middle;resizable=0;points=[];autosize=1;strokeColor=none;fillColor=none;fontColor=#000000;" vertex="1" parent="Zp11ZbCgC5UE5Tyb08me-49">
          <mxGeometry x="105.5" y="138" width="20" height="20" as="geometry" />
        </mxCell>
        <mxCell id="Zp11ZbCgC5UE5Tyb08me-69" value="数据" style="swimlane;" vertex="1" parent="1">
          <mxGeometry x="62" y="270" width="130" height="80" as="geometry" />
        </mxCell>
        <mxCell id="Zp11ZbCgC5UE5Tyb08me-70" value="" style="rounded=0;whiteSpace=wrap;html=1;strokeColor=#b85450;fillColor=#f8cecc;" vertex="1" parent="Zp11ZbCgC5UE5Tyb08me-69">
          <mxGeometry x="10" y="30" width="30" height="40" as="geometry" />
        </mxCell>
        <mxCell id="Zp11ZbCgC5UE5Tyb08me-73" value="" style="rounded=0;whiteSpace=wrap;html=1;strokeColor=#b85450;fillColor=#f8cecc;" vertex="1" parent="Zp11ZbCgC5UE5Tyb08me-69">
          <mxGeometry x="50" y="30" width="30" height="40" as="geometry" />
        </mxCell>
        <mxCell id="Zp11ZbCgC5UE5Tyb08me-74" value="" style="rounded=0;whiteSpace=wrap;html=1;strokeColor=#b85450;fillColor=#f8cecc;" vertex="1" parent="Zp11ZbCgC5UE5Tyb08me-69">
          <mxGeometry x="90" y="30" width="30" height="40" as="geometry" />
        </mxCell>
        <mxCell id="Zp11ZbCgC5UE5Tyb08me-75" value="&lt;div&gt;1、coordinator：辅助实现消费者组的初始化和分区的分配。&lt;/div&gt;&lt;div&gt;&amp;nbsp; &amp;nbsp; &amp;nbsp;coordinator节点选择 = groupid的hashcode值 % 50（ __consumer_offsets的分区数量）&lt;/div&gt;&lt;div&gt;&amp;nbsp; &amp;nbsp; &amp;nbsp;例如： groupid的hashcode值 = 1，1% 50 = 1，那么__consumer_offsets 主题的1号分区，在哪个broker上，&lt;/div&gt;&lt;div&gt;&amp;nbsp; &amp;nbsp; &amp;nbsp; &amp;nbsp; &amp;nbsp; &amp;nbsp; &amp;nbsp; &amp;nbsp; &amp;nbsp;就选择这个节点的coordinator&lt;span style=&quot;background-color: initial;&quot;&gt;作为这个消费者组的老大。消费者组下的所有的消费者提交offset的时&lt;/span&gt;&lt;/div&gt;&lt;div&gt;&lt;span style=&quot;background-color: initial;&quot;&gt;&amp;nbsp; &amp;nbsp; &amp;nbsp; &amp;nbsp; &amp;nbsp; &amp;nbsp; &amp;nbsp; &amp;nbsp; &amp;nbsp;候就往这个分区去提交offset。&lt;/span&gt;&lt;/div&gt;" style="text;html=1;align=left;verticalAlign=middle;resizable=0;points=[];autosize=1;strokeColor=none;fillColor=none;" vertex="1" parent="1">
          <mxGeometry x="1020" y="100" width="610" height="80" as="geometry" />
        </mxCell>
        <mxCell id="Zp11ZbCgC5UE5Tyb08me-84" style="edgeStyle=none;rounded=0;orthogonalLoop=1;jettySize=auto;html=1;exitX=0;exitY=0.5;exitDx=0;exitDy=0;entryX=1;entryY=0.5;entryDx=0;entryDy=0;fillColor=#ffe6cc;strokeColor=#d79b00;dashed=1;" edge="1" parent="1" source="Zp11ZbCgC5UE5Tyb08me-51" target="Zp11ZbCgC5UE5Tyb08me-64">
          <mxGeometry relative="1" as="geometry" />
        </mxCell>
        <mxCell id="Zp11ZbCgC5UE5Tyb08me-96" value="1" style="edgeLabel;html=1;align=center;verticalAlign=middle;resizable=0;points=[];" vertex="1" connectable="0" parent="Zp11ZbCgC5UE5Tyb08me-84">
          <mxGeometry x="-0.2732" relative="1" as="geometry">
            <mxPoint as="offset" />
          </mxGeometry>
        </mxCell>
        <mxCell id="Zp11ZbCgC5UE5Tyb08me-85" style="edgeStyle=none;rounded=0;orthogonalLoop=1;jettySize=auto;html=1;exitX=0;exitY=0.5;exitDx=0;exitDy=0;entryX=1;entryY=0.75;entryDx=0;entryDy=0;fillColor=#ffe6cc;strokeColor=#d79b00;dashed=1;" edge="1" parent="1" source="Zp11ZbCgC5UE5Tyb08me-52" target="Zp11ZbCgC5UE5Tyb08me-64">
          <mxGeometry relative="1" as="geometry">
            <mxPoint x="650" y="390" as="targetPoint" />
          </mxGeometry>
        </mxCell>
        <mxCell id="Zp11ZbCgC5UE5Tyb08me-97" value="1" style="edgeLabel;html=1;align=center;verticalAlign=middle;resizable=0;points=[];" vertex="1" connectable="0" parent="Zp11ZbCgC5UE5Tyb08me-85">
          <mxGeometry x="-0.2892" y="3" relative="1" as="geometry">
            <mxPoint y="-3" as="offset" />
          </mxGeometry>
        </mxCell>
        <mxCell id="Zp11ZbCgC5UE5Tyb08me-86" style="edgeStyle=none;rounded=0;orthogonalLoop=1;jettySize=auto;html=1;entryX=0;entryY=0.25;entryDx=0;entryDy=0;fillColor=#dae8fc;strokeColor=#6c8ebf;dashed=1;dashPattern=1 1;" edge="1" parent="1" target="Zp11ZbCgC5UE5Tyb08me-51">
          <mxGeometry relative="1" as="geometry">
            <mxPoint x="640" y="380" as="sourcePoint" />
          </mxGeometry>
        </mxCell>
        <mxCell id="Zp11ZbCgC5UE5Tyb08me-108" value="6" style="edgeLabel;html=1;align=center;verticalAlign=middle;resizable=0;points=[];fontColor=#000000;" vertex="1" connectable="0" parent="Zp11ZbCgC5UE5Tyb08me-86">
          <mxGeometry x="0.5762" y="-2" relative="1" as="geometry">
            <mxPoint as="offset" />
          </mxGeometry>
        </mxCell>
        <mxCell id="Zp11ZbCgC5UE5Tyb08me-88" style="edgeStyle=none;rounded=0;orthogonalLoop=1;jettySize=auto;html=1;exitX=1;exitY=1;exitDx=0;exitDy=0;entryX=0;entryY=0.75;entryDx=0;entryDy=0;fillColor=#dae8fc;strokeColor=#6c8ebf;dashed=1;dashPattern=1 1;" edge="1" parent="1" source="Zp11ZbCgC5UE5Tyb08me-64" target="Zp11ZbCgC5UE5Tyb08me-52">
          <mxGeometry relative="1" as="geometry" />
        </mxCell>
        <mxCell id="Zp11ZbCgC5UE5Tyb08me-110" value="6" style="edgeLabel;html=1;align=center;verticalAlign=middle;resizable=0;points=[];fontColor=#000000;" vertex="1" connectable="0" parent="Zp11ZbCgC5UE5Tyb08me-88">
          <mxGeometry x="0.5661" y="-3" relative="1" as="geometry">
            <mxPoint as="offset" />
          </mxGeometry>
        </mxCell>
        <mxCell id="Zp11ZbCgC5UE5Tyb08me-91" style="edgeStyle=none;rounded=0;orthogonalLoop=1;jettySize=auto;html=1;exitX=1;exitY=0;exitDx=0;exitDy=0;entryX=0;entryY=0.25;entryDx=0;entryDy=0;fillColor=#dae8fc;strokeColor=#6c8ebf;dashed=1;dashPattern=1 1;" edge="1" parent="1" source="Zp11ZbCgC5UE5Tyb08me-64" target="Zp11ZbCgC5UE5Tyb08me-50">
          <mxGeometry relative="1" as="geometry" />
        </mxCell>
        <mxCell id="Zp11ZbCgC5UE5Tyb08me-106" value="6" style="edgeLabel;html=1;align=center;verticalAlign=middle;resizable=0;points=[];fontColor=#000000;" vertex="1" connectable="0" parent="Zp11ZbCgC5UE5Tyb08me-91">
          <mxGeometry x="0.6056" y="1" relative="1" as="geometry">
            <mxPoint as="offset" />
          </mxGeometry>
        </mxCell>
        <mxCell id="Zp11ZbCgC5UE5Tyb08me-92" style="edgeStyle=none;rounded=0;orthogonalLoop=1;jettySize=auto;html=1;exitX=0;exitY=0.5;exitDx=0;exitDy=0;entryX=1;entryY=0.25;entryDx=0;entryDy=0;fillColor=#ffe6cc;strokeColor=#d79b00;dashed=1;" edge="1" parent="1" source="Zp11ZbCgC5UE5Tyb08me-50" target="Zp11ZbCgC5UE5Tyb08me-64">
          <mxGeometry relative="1" as="geometry" />
        </mxCell>
        <mxCell id="Zp11ZbCgC5UE5Tyb08me-95" value="1" style="edgeLabel;html=1;align=center;verticalAlign=middle;resizable=0;points=[];" vertex="1" connectable="0" parent="Zp11ZbCgC5UE5Tyb08me-92">
          <mxGeometry x="-0.2388" y="-1" relative="1" as="geometry">
            <mxPoint y="3" as="offset" />
          </mxGeometry>
        </mxCell>
        <mxCell id="Zp11ZbCgC5UE5Tyb08me-93" style="edgeStyle=orthogonalEdgeStyle;rounded=0;orthogonalLoop=1;jettySize=auto;html=1;exitX=0.5;exitY=0;exitDx=0;exitDy=0;entryX=0.75;entryY=0;entryDx=0;entryDy=0;fillColor=#e51400;strokeColor=#B20000;" edge="1" parent="1" source="Zp11ZbCgC5UE5Tyb08me-51" target="Zp11ZbCgC5UE5Tyb08me-64">
          <mxGeometry relative="1" as="geometry" />
        </mxCell>
        <mxCell id="Zp11ZbCgC5UE5Tyb08me-105" value="5" style="edgeLabel;html=1;align=center;verticalAlign=middle;resizable=0;points=[];fontColor=#000000;" vertex="1" connectable="0" parent="Zp11ZbCgC5UE5Tyb08me-93">
          <mxGeometry x="-0.3092" y="-2" relative="1" as="geometry">
            <mxPoint as="offset" />
          </mxGeometry>
        </mxCell>
        <mxCell id="Zp11ZbCgC5UE5Tyb08me-94" style="edgeStyle=orthogonalEdgeStyle;rounded=0;orthogonalLoop=1;jettySize=auto;html=1;exitX=0.75;exitY=1;exitDx=0;exitDy=0;entryX=0.5;entryY=1;entryDx=0;entryDy=0;fillColor=#0050ef;strokeColor=#001DBC;" edge="1" parent="1" source="Zp11ZbCgC5UE5Tyb08me-64" target="Zp11ZbCgC5UE5Tyb08me-51">
          <mxGeometry relative="1" as="geometry" />
        </mxCell>
        <mxCell id="Zp11ZbCgC5UE5Tyb08me-98" value="2" style="edgeLabel;html=1;align=center;verticalAlign=middle;resizable=0;points=[];" vertex="1" connectable="0" parent="Zp11ZbCgC5UE5Tyb08me-94">
          <mxGeometry x="0.2561" y="-3" relative="1" as="geometry">
            <mxPoint y="-3" as="offset" />
          </mxGeometry>
        </mxCell>
        <mxCell id="Zp11ZbCgC5UE5Tyb08me-100" style="edgeStyle=orthogonalEdgeStyle;rounded=0;orthogonalLoop=1;jettySize=auto;html=1;exitX=1;exitY=0.75;exitDx=0;exitDy=0;entryX=0;entryY=0.75;entryDx=0;entryDy=0;fontColor=#FF0000;" edge="1" parent="1" source="Zp11ZbCgC5UE5Tyb08me-64" target="Zp11ZbCgC5UE5Tyb08me-51">
          <mxGeometry relative="1" as="geometry" />
        </mxCell>
        <mxCell id="Zp11ZbCgC5UE5Tyb08me-104" value="3" style="edgeLabel;html=1;align=center;verticalAlign=middle;resizable=0;points=[];fontColor=#000000;" vertex="1" connectable="0" parent="Zp11ZbCgC5UE5Tyb08me-100">
          <mxGeometry x="0.0936" relative="1" as="geometry">
            <mxPoint as="offset" />
          </mxGeometry>
        </mxCell>
        <mxCell id="Zp11ZbCgC5UE5Tyb08me-111" value="&lt;h1&gt;&lt;span style=&quot;font-size: 12px;&quot;&gt;现消费者组的初始化和分区的分配&lt;/span&gt;&lt;br&gt;&lt;/h1&gt;&lt;p&gt;1）每个consumer都发送JoinGroup请求&lt;br&gt;&lt;/p&gt;&lt;p&gt;&lt;span style=&quot;text-align: center;&quot;&gt;2）选出一个&lt;/span&gt;&lt;span style=&quot;text-align: center;&quot;&gt;consumer作为leader&lt;/span&gt;&lt;br&gt;&lt;/p&gt;&lt;p&gt;&lt;span style=&quot;text-align: center;&quot;&gt;3）把要消费的topic情况&lt;/span&gt;&lt;span style=&quot;text-align: center;&quot;&gt;发送给leader 消费者&lt;/span&gt;&lt;span style=&quot;text-align: center;&quot;&gt;&lt;br&gt;&lt;/span&gt;&lt;/p&gt;&lt;p&gt;&lt;span style=&quot;text-align: center;&quot;&gt;4）leader会负&lt;/span&gt;&lt;span style=&quot;text-align: center;&quot;&gt;责制定消费方案&lt;/span&gt;&lt;span style=&quot;text-align: center;&quot;&gt;&lt;br&gt;&lt;/span&gt;&lt;/p&gt;&lt;p&gt;&lt;span style=&quot;text-align: center;&quot;&gt;5）把消费方案发给coordinator&lt;/span&gt;&lt;span style=&quot;text-align: center;&quot;&gt;&lt;br&gt;&lt;/span&gt;&lt;/p&gt;&lt;p&gt;6）Coordinator就把消费方案下发给各个consumer&lt;span style=&quot;text-align: center;&quot;&gt;&lt;br&gt;&lt;/span&gt;&lt;/p&gt;&lt;p&gt;7）每个消费者都会和coordinator保持心跳（默认3s），一旦超时&lt;br&gt;（session.timeout.ms=45s），该消费者会被移除，并触发再平衡；&lt;br&gt;或者消费者处理消息的时间过长（max.poll.interval.ms5分钟），也&lt;br&gt;会触发再平衡&lt;br&gt;&lt;/p&gt;" style="text;html=1;strokeColor=none;fillColor=none;spacing=5;spacingTop=-20;whiteSpace=wrap;overflow=hidden;rounded=0;fontColor=#000000;" vertex="1" parent="1">
          <mxGeometry x="1170" y="216" width="373" height="290" as="geometry" />
        </mxCell>
      </root>
    </mxGraphModel>
  </diagram>
  <diagram id="1bqJctRc36mrPX_bSpG0" name="08 消费者组详细消费流程">
    <mxGraphModel dx="1022" dy="468" grid="1" gridSize="10" guides="1" tooltips="1" connect="1" arrows="1" fold="1" page="1" pageScale="1" pageWidth="827" pageHeight="1169" math="0" shadow="0">
      <root>
        <mxCell id="0" />
        <mxCell id="1" parent="0" />
        <mxCell id="3CqVKIrJKm1UV_5s9F_y-1" value="     kafka cluster" style="swimlane;strokeColor=#000000;fillColor=#FFFFFF;align=left;" vertex="1" parent="1">
          <mxGeometry x="150" y="101" width="280" height="439" as="geometry" />
        </mxCell>
        <mxCell id="3CqVKIrJKm1UV_5s9F_y-2" value="     broker0" style="swimlane;align=left;" vertex="1" parent="3CqVKIrJKm1UV_5s9F_y-1">
          <mxGeometry x="20" y="38.5" width="230" height="111.5" as="geometry" />
        </mxCell>
        <mxCell id="3CqVKIrJKm1UV_5s9F_y-3" value="TopicA-partition0-leader" style="swimlane;startSize=23;fillColor=#d5e8d4;strokeColor=#82b366;" vertex="1" parent="3CqVKIrJKm1UV_5s9F_y-2">
          <mxGeometry x="18.5" y="30" width="187.5" height="70" as="geometry" />
        </mxCell>
        <mxCell id="3CqVKIrJKm1UV_5s9F_y-4" value="0" style="rounded=0;whiteSpace=wrap;html=1;" vertex="1" parent="3CqVKIrJKm1UV_5s9F_y-3">
          <mxGeometry x="8.5" y="30" width="30" height="30" as="geometry" />
        </mxCell>
        <mxCell id="3CqVKIrJKm1UV_5s9F_y-5" value="1" style="rounded=0;whiteSpace=wrap;html=1;" vertex="1" parent="3CqVKIrJKm1UV_5s9F_y-3">
          <mxGeometry x="56.5" y="30" width="30" height="30" as="geometry" />
        </mxCell>
        <mxCell id="3CqVKIrJKm1UV_5s9F_y-6" value="2" style="rounded=0;whiteSpace=wrap;html=1;" vertex="1" parent="3CqVKIrJKm1UV_5s9F_y-3">
          <mxGeometry x="103.5" y="30" width="30" height="30" as="geometry" />
        </mxCell>
        <mxCell id="3CqVKIrJKm1UV_5s9F_y-7" value="3" style="rounded=0;whiteSpace=wrap;html=1;" vertex="1" parent="3CqVKIrJKm1UV_5s9F_y-3">
          <mxGeometry x="149.5" y="30" width="30" height="30" as="geometry" />
        </mxCell>
        <mxCell id="3CqVKIrJKm1UV_5s9F_y-10" value="     broker1" style="swimlane;align=left;" vertex="1" parent="3CqVKIrJKm1UV_5s9F_y-1">
          <mxGeometry x="20" y="168.5" width="230" height="121.5" as="geometry" />
        </mxCell>
        <mxCell id="3CqVKIrJKm1UV_5s9F_y-11" value="TopicA-partition1-leader" style="swimlane;startSize=23;fillColor=#dae8fc;strokeColor=#6c8ebf;" vertex="1" parent="3CqVKIrJKm1UV_5s9F_y-10">
          <mxGeometry x="18.5" y="30" width="187.5" height="70" as="geometry" />
        </mxCell>
        <mxCell id="3CqVKIrJKm1UV_5s9F_y-12" value="0" style="rounded=0;whiteSpace=wrap;html=1;" vertex="1" parent="3CqVKIrJKm1UV_5s9F_y-11">
          <mxGeometry x="8.5" y="30" width="30" height="30" as="geometry" />
        </mxCell>
        <mxCell id="3CqVKIrJKm1UV_5s9F_y-13" value="1" style="rounded=0;whiteSpace=wrap;html=1;" vertex="1" parent="3CqVKIrJKm1UV_5s9F_y-11">
          <mxGeometry x="56.5" y="30" width="30" height="30" as="geometry" />
        </mxCell>
        <mxCell id="3CqVKIrJKm1UV_5s9F_y-14" value="2" style="rounded=0;whiteSpace=wrap;html=1;" vertex="1" parent="3CqVKIrJKm1UV_5s9F_y-11">
          <mxGeometry x="103.5" y="30" width="30" height="30" as="geometry" />
        </mxCell>
        <mxCell id="3CqVKIrJKm1UV_5s9F_y-15" value="3" style="rounded=0;whiteSpace=wrap;html=1;" vertex="1" parent="3CqVKIrJKm1UV_5s9F_y-11">
          <mxGeometry x="149.5" y="30" width="30" height="30" as="geometry" />
        </mxCell>
        <mxCell id="3CqVKIrJKm1UV_5s9F_y-18" value="     broker2" style="swimlane;align=left;" vertex="1" parent="3CqVKIrJKm1UV_5s9F_y-1">
          <mxGeometry x="20" y="298.5" width="230" height="121.5" as="geometry" />
        </mxCell>
        <mxCell id="3CqVKIrJKm1UV_5s9F_y-19" value="TopicA-partition2-leader" style="swimlane;startSize=23;fillColor=#ffe6cc;strokeColor=#d79b00;" vertex="1" parent="3CqVKIrJKm1UV_5s9F_y-18">
          <mxGeometry x="18.5" y="30" width="187.5" height="70" as="geometry" />
        </mxCell>
        <mxCell id="3CqVKIrJKm1UV_5s9F_y-20" value="0" style="rounded=0;whiteSpace=wrap;html=1;" vertex="1" parent="3CqVKIrJKm1UV_5s9F_y-19">
          <mxGeometry x="8.5" y="30" width="30" height="30" as="geometry" />
        </mxCell>
        <mxCell id="3CqVKIrJKm1UV_5s9F_y-21" value="1" style="rounded=0;whiteSpace=wrap;html=1;" vertex="1" parent="3CqVKIrJKm1UV_5s9F_y-19">
          <mxGeometry x="56.5" y="30" width="30" height="30" as="geometry" />
        </mxCell>
        <mxCell id="3CqVKIrJKm1UV_5s9F_y-22" value="2" style="rounded=0;whiteSpace=wrap;html=1;" vertex="1" parent="3CqVKIrJKm1UV_5s9F_y-19">
          <mxGeometry x="103.5" y="30" width="30" height="30" as="geometry" />
        </mxCell>
        <mxCell id="3CqVKIrJKm1UV_5s9F_y-23" value="3" style="rounded=0;whiteSpace=wrap;html=1;" vertex="1" parent="3CqVKIrJKm1UV_5s9F_y-19">
          <mxGeometry x="149.5" y="30" width="30" height="30" as="geometry" />
        </mxCell>
        <mxCell id="3CqVKIrJKm1UV_5s9F_y-30" value="group" style="swimlane;fillColor=#e1d5e7;strokeColor=#9673a6;" vertex="1" parent="1">
          <mxGeometry x="920" y="117" width="170" height="368" as="geometry" />
        </mxCell>
        <mxCell id="3CqVKIrJKm1UV_5s9F_y-31" value="&lt;span style=&quot;&quot;&gt;consumer&lt;/span&gt;" style="rounded=0;whiteSpace=wrap;html=1;strokeColor=#666666;fillColor=#f5f5f5;fontColor=#333333;" vertex="1" parent="3CqVKIrJKm1UV_5s9F_y-30">
          <mxGeometry x="24.5" y="62.5" width="121" height="33" as="geometry" />
        </mxCell>
        <mxCell id="3CqVKIrJKm1UV_5s9F_y-32" value="&lt;span style=&quot;&quot;&gt;consumer&lt;/span&gt;" style="rounded=0;whiteSpace=wrap;html=1;strokeColor=#666666;fillColor=#f5f5f5;fontColor=#333333;" vertex="1" parent="3CqVKIrJKm1UV_5s9F_y-30">
          <mxGeometry x="24.5" y="158" width="121" height="33" as="geometry" />
        </mxCell>
        <mxCell id="3CqVKIrJKm1UV_5s9F_y-33" value="&lt;span style=&quot;&quot;&gt;consumer&lt;/span&gt;" style="rounded=0;whiteSpace=wrap;html=1;strokeColor=#666666;fillColor=#f5f5f5;fontColor=#333333;" vertex="1" parent="3CqVKIrJKm1UV_5s9F_y-30">
          <mxGeometry x="24.5" y="250" width="121" height="33" as="geometry" />
        </mxCell>
        <mxCell id="3CqVKIrJKm1UV_5s9F_y-58" value="" style="rounded=0;whiteSpace=wrap;html=1;dashed=1;" vertex="1" parent="1">
          <mxGeometry x="500" y="120" width="380" height="420" as="geometry" />
        </mxCell>
        <mxCell id="3CqVKIrJKm1UV_5s9F_y-76" value="2" style="edgeStyle=orthogonalEdgeStyle;rounded=0;orthogonalLoop=1;jettySize=auto;html=1;exitX=0;exitY=0.5;exitDx=0;exitDy=0;entryX=1;entryY=0.5;entryDx=0;entryDy=0;fontColor=#000000;" edge="1" parent="1" source="3CqVKIrJKm1UV_5s9F_y-59" target="3CqVKIrJKm1UV_5s9F_y-2">
          <mxGeometry relative="1" as="geometry" />
        </mxCell>
        <mxCell id="3CqVKIrJKm1UV_5s9F_y-59" value="ConsumerNetworkClient" style="rounded=0;whiteSpace=wrap;html=1;fillColor=#f8cecc;strokeColor=#b85450;gradientColor=#ea6b66;" vertex="1" parent="1">
          <mxGeometry x="525" y="166" width="190" height="60" as="geometry" />
        </mxCell>
        <mxCell id="3CqVKIrJKm1UV_5s9F_y-60" value="Consumer" style="text;whiteSpace=wrap;html=1;fontColor=#000000;" vertex="1" parent="1">
          <mxGeometry x="645" y="71" width="80" height="30" as="geometry" />
        </mxCell>
        <mxCell id="3CqVKIrJKm1UV_5s9F_y-61" style="edgeStyle=orthogonalEdgeStyle;rounded=0;orthogonalLoop=1;jettySize=auto;html=1;exitX=0;exitY=0.5;exitDx=0;exitDy=0;entryX=1;entryY=0.5;entryDx=0;entryDy=0;fontColor=#000000;" edge="1" parent="1" source="3CqVKIrJKm1UV_5s9F_y-31" target="3CqVKIrJKm1UV_5s9F_y-59">
          <mxGeometry relative="1" as="geometry" />
        </mxCell>
        <mxCell id="3CqVKIrJKm1UV_5s9F_y-92" value="1" style="edgeLabel;html=1;align=center;verticalAlign=middle;resizable=0;points=[];fontColor=#000000;" vertex="1" connectable="0" parent="3CqVKIrJKm1UV_5s9F_y-61">
          <mxGeometry x="-0.0951" y="-1" relative="1" as="geometry">
            <mxPoint as="offset" />
          </mxGeometry>
        </mxCell>
        <mxCell id="3CqVKIrJKm1UV_5s9F_y-89" value="5" style="edgeStyle=orthogonalEdgeStyle;rounded=0;orthogonalLoop=1;jettySize=auto;html=1;exitX=1;exitY=0.5;exitDx=0;exitDy=0;entryX=0;entryY=0.5;entryDx=0;entryDy=0;fontColor=#000000;" edge="1" parent="1" source="3CqVKIrJKm1UV_5s9F_y-62" target="3CqVKIrJKm1UV_5s9F_y-82">
          <mxGeometry relative="1" as="geometry" />
        </mxCell>
        <mxCell id="3CqVKIrJKm1UV_5s9F_y-62" value="" style="rounded=0;whiteSpace=wrap;html=1;strokeColor=#82b366;fillColor=#d5e8d4;" vertex="1" parent="1">
          <mxGeometry x="526" y="348" width="200" height="100" as="geometry" />
        </mxCell>
        <mxCell id="3CqVKIrJKm1UV_5s9F_y-63" value="&lt;span style=&quot;color: rgb(0, 0, 0); font-family: Helvetica; font-size: 12px; font-style: normal; font-variant-ligatures: normal; font-variant-caps: normal; font-weight: 400; letter-spacing: normal; orphans: 2; text-align: center; text-indent: 0px; text-transform: none; widows: 2; word-spacing: 0px; -webkit-text-stroke-width: 0px; background-color: rgb(248, 249, 250); text-decoration-thickness: initial; text-decoration-style: initial; text-decoration-color: initial; float: none; display: inline !important;&quot;&gt;Fetch.min.bytes每批次最&lt;/span&gt;&lt;br style=&quot;color: rgb(0, 0, 0); font-family: Helvetica; font-size: 12px; font-style: normal; font-variant-ligatures: normal; font-variant-caps: normal; font-weight: 400; letter-spacing: normal; orphans: 2; text-align: center; text-indent: 0px; text-transform: none; widows: 2; word-spacing: 0px; -webkit-text-stroke-width: 0px; background-color: rgb(248, 249, 250); text-decoration-thickness: initial; text-decoration-style: initial; text-decoration-color: initial;&quot;&gt;&lt;span style=&quot;color: rgb(0, 0, 0); font-family: Helvetica; font-size: 12px; font-style: normal; font-variant-ligatures: normal; font-variant-caps: normal; font-weight: 400; letter-spacing: normal; orphans: 2; text-align: center; text-indent: 0px; text-transform: none; widows: 2; word-spacing: 0px; -webkit-text-stroke-width: 0px; background-color: rgb(248, 249, 250); text-decoration-thickness: initial; text-decoration-style: initial; text-decoration-color: initial; float: none; display: inline !important;&quot;&gt;小抓取大小，&lt;/span&gt;&lt;span style=&quot;font-family: Helvetica; font-size: 12px; font-style: normal; font-variant-ligatures: normal; font-variant-caps: normal; font-weight: 400; letter-spacing: normal; orphans: 2; text-align: center; text-indent: 0px; text-transform: none; widows: 2; word-spacing: 0px; -webkit-text-stroke-width: 0px; background-color: rgb(248, 249, 250); text-decoration-thickness: initial; text-decoration-style: initial; text-decoration-color: initial; float: none; display: inline !important;&quot;&gt;&lt;font color=&quot;#ff0000&quot;&gt;默认1字节&lt;/font&gt;&lt;/span&gt;" style="text;whiteSpace=wrap;html=1;fontColor=#000000;" vertex="1" parent="1">
          <mxGeometry x="525" y="226" width="160" height="60" as="geometry" />
        </mxCell>
        <mxCell id="3CqVKIrJKm1UV_5s9F_y-64" value="sendFetches&lt;br&gt;发送消费请求" style="text;whiteSpace=wrap;html=1;fontColor=#000000;" vertex="1" parent="1">
          <mxGeometry x="740" y="156" width="130" height="40" as="geometry" />
        </mxCell>
        <mxCell id="3CqVKIrJKm1UV_5s9F_y-65" value="fetch.max.wait.ms一批数据最小值&lt;br&gt;未达到的超时时间，&lt;font color=&quot;#ff0000&quot;&gt;默认500ms&lt;/font&gt;" style="text;whiteSpace=wrap;html=1;fontColor=#000000;" vertex="1" parent="1">
          <mxGeometry x="525" y="300" width="210" height="40" as="geometry" />
        </mxCell>
        <mxCell id="3CqVKIrJKm1UV_5s9F_y-66" value="Fetch.max.bytes每批次最&lt;br&gt;大抓取大小，&lt;font color=&quot;#ff0000&quot;&gt;默认50m&lt;/font&gt;" style="text;whiteSpace=wrap;html=1;fontColor=#000000;" vertex="1" parent="1">
          <mxGeometry x="525" y="260" width="160" height="40" as="geometry" />
        </mxCell>
        <mxCell id="3CqVKIrJKm1UV_5s9F_y-67" value="FetchedRecords&#xa;从队列中抓取数据" style="text;whiteSpace=wrap;html=1;fontColor=#000000;" vertex="1" parent="1">
          <mxGeometry x="730" y="228" width="120" height="40" as="geometry" />
        </mxCell>
        <mxCell id="3CqVKIrJKm1UV_5s9F_y-68" value="Max.poll.records一次&lt;br&gt;拉取数据返回消息的&lt;br&gt;最大条数，&lt;font color=&quot;#ff0000&quot;&gt;默认500条&lt;/font&gt;" style="text;whiteSpace=wrap;html=1;fontColor=#000000;" vertex="1" parent="1">
          <mxGeometry x="729" y="265" width="140" height="60" as="geometry" />
        </mxCell>
        <mxCell id="3CqVKIrJKm1UV_5s9F_y-69" value="onSuccess" style="text;whiteSpace=wrap;html=1;fontColor=#000000;" vertex="1" parent="1">
          <mxGeometry x="440" y="308" width="80" height="30" as="geometry" />
        </mxCell>
        <mxCell id="3CqVKIrJKm1UV_5s9F_y-70" value="send" style="text;whiteSpace=wrap;html=1;fontColor=#000000;" vertex="1" parent="1">
          <mxGeometry x="450" y="166" width="50" height="30" as="geometry" />
        </mxCell>
        <mxCell id="3CqVKIrJKm1UV_5s9F_y-71" value="completedFetches&lt;br&gt;&amp;nbsp; &amp;nbsp; &amp;nbsp; &amp;nbsp;（queue）" style="text;whiteSpace=wrap;html=1;fontColor=#000000;" vertex="1" parent="1">
          <mxGeometry x="576" y="348" width="120" height="40" as="geometry" />
        </mxCell>
        <mxCell id="3CqVKIrJKm1UV_5s9F_y-77" value="&lt;span style=&quot;text-align: left;&quot;&gt;completed&lt;/span&gt;&lt;br style=&quot;text-align: left;&quot;&gt;&lt;span style=&quot;text-align: left;&quot;&gt;Fetch&lt;/span&gt;" style="rounded=1;whiteSpace=wrap;html=1;strokeColor=#6c8ebf;fillColor=#dae8fc;" vertex="1" parent="1">
          <mxGeometry x="648" y="402" width="70" height="35" as="geometry" />
        </mxCell>
        <mxCell id="3CqVKIrJKm1UV_5s9F_y-78" value="&lt;span style=&quot;text-align: left;&quot;&gt;completed&lt;/span&gt;&lt;br style=&quot;text-align: left;&quot;&gt;&lt;span style=&quot;text-align: left;&quot;&gt;Fetch&lt;/span&gt;" style="rounded=1;whiteSpace=wrap;html=1;strokeColor=#6c8ebf;fillColor=#dae8fc;" vertex="1" parent="1">
          <mxGeometry x="536" y="402" width="70" height="35" as="geometry" />
        </mxCell>
        <mxCell id="3CqVKIrJKm1UV_5s9F_y-79" value="" style="shape=waypoint;sketch=0;size=6;pointerEvents=1;points=[];fillColor=none;resizable=0;rotatable=0;perimeter=centerPerimeter;snapToPoint=1;fontColor=#000000;strokeColor=#000000;" vertex="1" parent="1">
          <mxGeometry x="596" y="399.5" width="40" height="40" as="geometry" />
        </mxCell>
        <mxCell id="3CqVKIrJKm1UV_5s9F_y-80" value="" style="shape=waypoint;sketch=0;size=6;pointerEvents=1;points=[];fillColor=none;resizable=0;rotatable=0;perimeter=centerPerimeter;snapToPoint=1;fontColor=#000000;strokeColor=#000000;" vertex="1" parent="1">
          <mxGeometry x="606" y="399.5" width="40" height="40" as="geometry" />
        </mxCell>
        <mxCell id="3CqVKIrJKm1UV_5s9F_y-81" value="" style="shape=waypoint;sketch=0;size=6;pointerEvents=1;points=[];fillColor=none;resizable=0;rotatable=0;perimeter=centerPerimeter;snapToPoint=1;fontColor=#000000;strokeColor=#000000;" vertex="1" parent="1">
          <mxGeometry x="615" y="399.5" width="40" height="40" as="geometry" />
        </mxCell>
        <mxCell id="3CqVKIrJKm1UV_5s9F_y-85" style="edgeStyle=orthogonalEdgeStyle;rounded=0;orthogonalLoop=1;jettySize=auto;html=1;exitX=0.5;exitY=1;exitDx=0;exitDy=0;fontColor=#000000;" edge="1" parent="1" source="3CqVKIrJKm1UV_5s9F_y-82" target="3CqVKIrJKm1UV_5s9F_y-83">
          <mxGeometry relative="1" as="geometry" />
        </mxCell>
        <mxCell id="3CqVKIrJKm1UV_5s9F_y-82" value="&lt;span style=&quot;text-align: left;&quot;&gt;parseRecord&lt;/span&gt;&lt;br style=&quot;text-align: left;&quot;&gt;&lt;span style=&quot;text-align: left;&quot;&gt;（反序列化）&lt;/span&gt;" style="rounded=1;whiteSpace=wrap;html=1;strokeColor=#b85450;fillColor=#f8cecc;" vertex="1" parent="1">
          <mxGeometry x="770" y="380" width="100" height="35" as="geometry" />
        </mxCell>
        <mxCell id="3CqVKIrJKm1UV_5s9F_y-86" style="edgeStyle=orthogonalEdgeStyle;rounded=0;orthogonalLoop=1;jettySize=auto;html=1;exitX=0.5;exitY=1;exitDx=0;exitDy=0;entryX=0.5;entryY=0;entryDx=0;entryDy=0;fontColor=#000000;" edge="1" parent="1" source="3CqVKIrJKm1UV_5s9F_y-83" target="3CqVKIrJKm1UV_5s9F_y-84">
          <mxGeometry relative="1" as="geometry" />
        </mxCell>
        <mxCell id="3CqVKIrJKm1UV_5s9F_y-83" value="&lt;span style=&quot;text-align: left;&quot;&gt;Interceptors&lt;/span&gt;&lt;br style=&quot;text-align: left;&quot;&gt;&lt;span style=&quot;text-align: left;&quot;&gt;（拦截器）&lt;/span&gt;" style="rounded=1;whiteSpace=wrap;html=1;strokeColor=#b85450;fillColor=#f8cecc;" vertex="1" parent="1">
          <mxGeometry x="770" y="435.5" width="100" height="35" as="geometry" />
        </mxCell>
        <mxCell id="3CqVKIrJKm1UV_5s9F_y-84" value="&lt;span style=&quot;text-align: left;&quot;&gt;处理数据&lt;/span&gt;" style="rounded=1;whiteSpace=wrap;html=1;strokeColor=#b85450;fillColor=#f8cecc;" vertex="1" parent="1">
          <mxGeometry x="770" y="490.5" width="100" height="35" as="geometry" />
        </mxCell>
        <mxCell id="3CqVKIrJKm1UV_5s9F_y-90" value="4" style="rounded=0;orthogonalLoop=1;jettySize=auto;html=1;exitX=0.5;exitY=1;exitDx=0;exitDy=0;entryX=1;entryY=0.25;entryDx=0;entryDy=0;fontColor=#000000;" edge="1" parent="1" source="3CqVKIrJKm1UV_5s9F_y-31" target="3CqVKIrJKm1UV_5s9F_y-62">
          <mxGeometry relative="1" as="geometry" />
        </mxCell>
        <mxCell id="3CqVKIrJKm1UV_5s9F_y-91" value="3" style="edgeStyle=none;rounded=0;orthogonalLoop=1;jettySize=auto;html=1;exitX=1;exitY=0.75;exitDx=0;exitDy=0;entryX=0;entryY=0.25;entryDx=0;entryDy=0;fontColor=#000000;" edge="1" parent="1" source="3CqVKIrJKm1UV_5s9F_y-2" target="3CqVKIrJKm1UV_5s9F_y-62">
          <mxGeometry relative="1" as="geometry" />
        </mxCell>
      </root>
    </mxGraphModel>
  </diagram>
</mxfile>
